JosefinSlab-Bold-TTF.ufo
<glyph name="quotedbl" format="1">
  <advance width="335"/>
  <unicode hex="0022"/>
  <outline>
    <contour>
      <point x="196" y="472" type="line" name="sv02"/>
      <point x="196" y="720" type="line" name="sh01"/>
      <point x="279" y="720" type="line" name="sh02"/>
      <point x="278" y="657"/>
      <point x="276" y="535"/>
      <point x="275" y="472" type="qcurve"/>
    </contour>
    <contour>
      <point x="63" y="472" type="line" name="sv01"/>
      <point x="63" y="720" type="line" name="ah01"/>
      <point x="146" y="720" type="line" name="sh03"/>
      <point x="145" y="657"/>
      <point x="143" y="535"/>
      <point x="142" y="472" type="qcurve"/>
    </contour>
  </outline>
</glyph>
<glyph name="dollar" format="1">
  <advance width="567"/>
  <unicode hex="0024"/>
  <outline>
    <contour>
      <point x="345" y="546" type="line" name="sh01"/>
      <point x="345" y="605" type="line"/>
      <point x="331" y="611"/>
      <point x="300" y="621"/>
      <point x="281" y="623" type="qcurve" name="sv01"/>
      <point x="281" y="398" type="line" name="sh03"/>
      <point x="313" y="387"/>
      <point x="377" y="359" name="fh01"/>
      <point x="402.5" y="336.0" type="qcurve" smooth="yes" name="inserted"/>
      <point x="428" y="313" name="fh02"/>
      <point x="459" y="241"/>
      <point x="459" y="187" type="qcurve" name="dh02"/>
      <point x="459" y="146"/>
      <point x="431" y="79" name="fh03"/>
      <point x="407.0" y="54.0" type="qcurve" smooth="yes" name="inserted"/>
      <point x="383" y="29" name="fh04"/>
      <point x="318" y="-2"/>
      <point x="281" y="-6" type="qcurve" name="sh04"/>
      <point x="281" y="-68" type="line" name="sv02"/>
      <point x="197" y="-68" type="line"/>
      <point x="197" y="-3" type="line" name="sh05"/>
      <point x="137" y="6" name="fh05"/>
      <point x="43" y="60"/>
      <point x="21" y="93" type="qcurve"/>
      <point x="21" y="209" type="line" name="sh06"/>
      <point x="100" y="209" type="line" name="sh07"/>
      <point x="100" y="120" type="line"/>
      <point x="120" y="105"/>
      <point x="168" y="81"/>
      <point x="197" y="75" type="qcurve" name="ih02"/>
      <point x="197" y="343" type="line" name="sv04"/>
      <point x="168" y="352"/>
      <point x="116" y="376"/>
      <point x="95.5" y="395.5" type="qcurve" smooth="yes" name="inserted"/>
      <point x="75" y="415" name="fh06"/>
      <point x="50" y="473"/>
      <point x="49" y="517" type="qcurve" name="dh01"/>
      <point x="48" y="545"/>
      <point x="63" y="604" name="fh07"/>
      <point x="81.0" y="629.5" type="qcurve" smooth="yes" name="inserted"/>
      <point x="99" y="655" name="fh08"/>
      <point x="156" y="692" name="fh09"/>
      <point x="197" y="700" type="qcurve" name="sh09"/>
      <point x="197" y="764" type="line"/>
      <point x="281" y="764" type="line" name="sv05"/>
      <point x="281" y="702" type="line" name="sh10"/>
      <point x="313" y="699"/>
      <point x="386" y="675"/>
      <point x="424" y="644" type="qcurve"/>
      <point x="424" y="546" type="line" name="ih01"/>
    </contour>
    <contour>
      <point x="376" y="188" type="qcurve" name="sh11"/>
      <point x="376" y="216"/>
      <point x="361" y="257"/>
      <point x="348.5" y="272.0" type="qcurve" smooth="yes" name="inserted"/>
      <point x="336" y="287"/>
      <point x="301" y="308"/>
      <point x="281" y="316" type="qcurve" name="sv03"/>
      <point x="281" y="75" type="line" name="sh02"/>
      <point x="321" y="84"/>
      <point x="376" y="140"/>
    </contour>
    <contour>
      <point x="132" y="514" type="qcurve" name="sh12"/>
      <point x="132" y="480"/>
      <point x="168" y="441"/>
      <point x="197" y="427" type="qcurve" name="sh08"/>
      <point x="197" y="616" type="line" name="sv06"/>
      <point x="164" y="603"/>
      <point x="132" y="548"/>
    </contour>
  </outline>
</glyph>
<glyph name="percent" format="1">
  <advance width="726"/>
  <unicode hex="0025"/>
  <outline>
    <contour>
      <point x="478" y="111" type="qcurve" name="sh01"/>
      <point x="478" y="91"/>
      <point x="502" y="65"/>
      <point x="522" y="65" type="qcurve" name="sv01"/>
      <point x="542" y="65"/>
      <point x="566" y="91"/>
      <point x="566" y="111" type="qcurve" name="sh03"/>
      <point x="566" y="131"/>
      <point x="542" y="156"/>
      <point x="522" y="156" type="qcurve" name="sv03"/>
      <point x="502" y="156"/>
      <point x="478" y="131"/>
    </contour>
    <contour>
      <point x="522" y="-16" type="qcurve" name="av02"/>
      <point x="496" y="-16"/>
      <point x="449" y="4"/>
      <point x="431.5" y="21.0" type="qcurve" smooth="yes" name="inserted"/>
      <point x="414" y="38" name="fh01"/>
      <point x="394" y="84"/>
      <point x="394" y="111" type="qcurve" name="ah02"/>
      <point x="394" y="137"/>
      <point x="414" y="183" name="fh02"/>
      <point x="431.5" y="200.0" type="qcurve" smooth="yes" name="inserted"/>
      <point x="449" y="217" name="fh03"/>
      <point x="496" y="237"/>
      <point x="522" y="237" type="qcurve" name="sv02"/>
      <point x="548" y="237"/>
      <point x="594" y="217" name="fh04"/>
      <point x="611.5" y="200.0" type="qcurve" smooth="yes" name="inserted"/>
      <point x="629" y="183"/>
      <point x="650" y="137"/>
      <point x="650" y="111" type="qcurve" name="sh02"/>
      <point x="650" y="84"/>
      <point x="629" y="38"/>
      <point x="611.5" y="21.0" type="qcurve" smooth="yes" name="inserted"/>
      <point x="594" y="4" name="fh05"/>
      <point x="548" y="-16"/>
    </contour>
    <contour>
      <point x="174" y="389" type="qcurve" name="sh04"/>
      <point x="174" y="369"/>
      <point x="198" y="343"/>
      <point x="218" y="343" type="qcurve" name="sv05"/>
      <point x="238" y="343"/>
      <point x="262" y="369"/>
      <point x="262" y="389" type="qcurve" name="sh06"/>
      <point x="262" y="409"/>
      <point x="238" y="434"/>
      <point x="218" y="434" type="qcurve" name="sv06"/>
      <point x="198" y="434"/>
      <point x="174" y="409"/>
    </contour>
    <contour>
      <point x="218" y="262" type="qcurve" name="sv04"/>
      <point x="192" y="262"/>
      <point x="145" y="282" name="fh06"/>
      <point x="127.5" y="299.0" type="qcurve" smooth="yes" name="inserted"/>
      <point x="110" y="316"/>
      <point x="90" y="362"/>
      <point x="90" y="389" type="qcurve" name="ah01"/>
      <point x="90" y="415"/>
      <point x="110" y="461" name="fh07"/>
      <point x="127.5" y="478.0" type="qcurve" smooth="yes" name="inserted"/>
      <point x="145" y="495"/>
      <point x="192" y="515"/>
      <point x="218" y="515" type="qcurve" name="av01"/>
      <point x="244" y="515"/>
      <point x="290" y="495"/>
      <point x="307.5" y="478.0" type="qcurve" smooth="yes" name="inserted"/>
      <point x="325" y="461" name="fh08"/>
      <point x="346" y="415"/>
      <point x="346" y="389" type="qcurve" name="sh05"/>
      <point x="346" y="362"/>
      <point x="325" y="316"/>
      <point x="307.5" y="299.0" type="qcurve" smooth="yes" name="inserted"/>
      <point x="290" y="282" name="fh09"/>
      <point x="244" y="262"/>
    </contour>
    <contour>
      <point x="174" y="0" type="line" name="ih01"/>
      <point x="249" y="126"/>
      <point x="397" y="374"/>
      <point x="472" y="500" type="qcurve" name="sh08"/>
      <point x="563" y="500" type="line" name="sh07"/>
      <point x="488" y="374"/>
      <point x="340" y="126"/>
      <point x="265" y="0" type="qcurve" name="sh09"/>
    </contour>
  </outline>
</glyph>
<glyph name="quotesingle" format="1">
  <advance width="163"/>
  <unicode hex="0027"/>
  <outline>
    <contour>
      <point x="42" y="472" type="line" name="sv01"/>
      <point x="42" y="720" type="line" name="ah01"/>
      <point x="126" y="720" type="line" name="sh01"/>
      <point x="125" y="657"/>
      <point x="123" y="535"/>
      <point x="122" y="472" type="qcurve"/>
    </contour>
  </outline>
</glyph>
<glyph name="parenleft" format="1">
  <advance width="424"/>
  <unicode hex="0028"/>
  <outline>
    <contour>
      <point x="115" y="291" type="qcurve" name="ah01"/>
      <point x="115" y="366"/>
      <point x="143" y="502"/>
      <point x="166.0" y="560.0" type="qcurve" smooth="yes" name="inserted"/>
      <point x="189" y="618"/>
      <point x="248" y="713"/>
      <point x="280" y="746" type="qcurve" name="sh02"/>
      <point x="298" y="740"/>
      <point x="335" y="729"/>
      <point x="353" y="723" type="qcurve" name="sh01"/>
      <point x="324" y="690"/>
      <point x="269" y="600"/>
      <point x="247.0" y="545.0" type="qcurve" smooth="yes" name="inserted"/>
      <point x="225" y="490"/>
      <point x="199" y="362"/>
      <point x="199" y="291" type="qcurve" name="sh03"/>
      <point x="199" y="220"/>
      <point x="225" y="92" name="fh01"/>
      <point x="247.0" y="37.0" type="qcurve" smooth="yes" name="inserted"/>
      <point x="269" y="-18"/>
      <point x="324" y="-108"/>
      <point x="353" y="-141" type="qcurve" name="sh04"/>
      <point x="335" y="-147"/>
      <point x="298" y="-158"/>
      <point x="280" y="-164" type="qcurve" name="sh05"/>
      <point x="248" y="-131"/>
      <point x="189" y="-36"/>
      <point x="166.0" y="22.0" type="qcurve" smooth="yes" name="inserted"/>
      <point x="143" y="80"/>
      <point x="115" y="216"/>
    </contour>
  </outline>
</glyph>
<glyph name="asterisk" format="1">
  <advance width="335"/>
  <unicode hex="002A"/>
  <outline>
    <contour>
      <point x="250" y="575" type="qcurve" name="sh02"/>
      <point x="313" y="539" type="line" name="sh04"/>
      <point x="302" y="521"/>
      <point x="282" y="484"/>
      <point x="271" y="466" type="qcurve" name="sv01"/>
      <point x="255" y="475"/>
      <point x="225" y="494"/>
      <point x="209" y="503" type="qcurve" name="sv02"/>
      <point x="209" y="486"/>
      <point x="208" y="451"/>
      <point x="208" y="434" type="qcurve" name="sh05"/>
      <point x="128" y="434" type="line" name="sh06"/>
      <point x="128" y="504" type="line" name="iv02"/>
      <point x="113" y="495"/>
      <point x="82" y="478"/>
      <point x="67" y="469" type="qcurve" name="iv01"/>
      <point x="56" y="487"/>
      <point x="36" y="524"/>
      <point x="25" y="542" type="qcurve" name="sh08"/>
      <point x="41" y="550"/>
      <point x="71" y="568"/>
      <point x="87" y="576" type="qcurve" name="sh09"/>
      <point x="72" y="585"/>
      <point x="41" y="604"/>
      <point x="26" y="613" type="qcurve" name="sh07"/>
      <point x="65" y="682" type="line" name="iv03"/>
      <point x="81" y="673"/>
      <point x="112" y="654"/>
      <point x="128" y="645" type="qcurve" name="iv04"/>
      <point x="128" y="720" type="line" name="ah01"/>
      <point x="212" y="720" type="line" name="sh01"/>
      <point x="212" y="701"/>
      <point x="211" y="664"/>
      <point x="211" y="645" type="qcurve" name="sv03"/>
      <point x="227" y="654"/>
      <point x="259" y="672"/>
      <point x="275" y="681" type="qcurve" name="sv04"/>
      <point x="285" y="664"/>
      <point x="305" y="629"/>
      <point x="315" y="612" type="qcurve" name="sh03"/>
      <point x="298" y="603"/>
      <point x="267" y="584"/>
    </contour>
  </outline>
</glyph>
<glyph name="plus" format="1">
  <advance width="543"/>
  <unicode hex="002B"/>
  <outline>
    <contour>
      <point x="224" y="51" type="line" name="sv01"/>
      <point x="224" y="190" type="line" name="ah01"/>
      <point x="86" y="190" type="line" name="sh01"/>
      <point x="86" y="271" type="line"/>
      <point x="224" y="271" type="line" name="sh02"/>
      <point x="224" y="411" type="line" name="sv02"/>
      <point x="308" y="411" type="line"/>
      <point x="308" y="271" type="line" name="sh04"/>
      <point x="446" y="271" type="line"/>
      <point x="446" y="190" type="line" name="sh05"/>
      <point x="308" y="190" type="line" name="sh03"/>
      <point x="308" y="51" type="line"/>
    </contour>
  </outline>
</glyph>
<glyph name="comma" format="1">
  <advance width="200"/>
  <unicode hex="002C"/>
  <outline>
    <contour>
      <point x="163" y="86" type="line" name="sh01"/>
      <point x="141" y="34"/>
      <point x="99" y="-68"/>
      <point x="77" y="-120" type="qcurve" name="sh02"/>
      <point x="2" y="-120" type="line" name="ah01"/>
      <point x="22" y="-68" name="fh01"/>
      <point x="59" y="34"/>
      <point x="79" y="86" type="qcurve" name="sh03"/>
    </contour>
  </outline>
</glyph>
<glyph name="hyphen" format="1">
  <advance width="300"/>
  <unicode hex="002D"/>
  <unicode hex="00AD"/>
  <outline>
    <contour>
      <point x="53" y="147" type="line" name="ah01"/>
      <point x="53" y="228" type="line" name="sv01"/>
      <point x="237" y="228" type="line"/>
      <point x="237" y="147" type="line" name="sh01"/>
    </contour>
  </outline>
</glyph>
<glyph name="period" format="1">
  <advance width="163"/>
  <unicode hex="002E"/>
  <outline>
    <contour>
      <point x="33" y="52" type="qcurve" name="ah01"/>
      <point x="33" y="75"/>
      <point x="65" y="105"/>
      <point x="85" y="105" type="qcurve" name="sv01"/>
      <point x="104" y="105"/>
      <point x="136" y="75"/>
      <point x="136" y="52" type="qcurve" name="sh01"/>
      <point x="136" y="29"/>
      <point x="104" y="0"/>
      <point x="85" y="0" type="qcurve" name="ab01"/>
      <point x="65" y="0"/>
      <point x="33" y="29"/>
    </contour>
  </outline>
</glyph>
<glyph name="slash" format="1">
  <advance width="380"/>
  <unicode hex="002F"/>
  <outline>
    <contour>
      <point x="17" y="-19" type="line" name="ah01"/>
      <point x="87" y="171"/>
      <point x="225" y="546"/>
      <point x="295" y="736" type="qcurve" name="sh02"/>
      <point x="379" y="736" type="line" name="sh01"/>
      <point x="309" y="546"/>
      <point x="171" y="171"/>
      <point x="101" y="-19" type="qcurve" name="sh03"/>
    </contour>
  </outline>
</glyph>
<glyph name="zero" format="1">
  <advance width="616"/>
  <unicode hex="0030"/>
  <outline>
    <contour>
      <point x="37" y="327" type="qcurve" name="dh01"/>
      <point x="37" y="403"/>
      <point x="80" y="526" name="fh01"/>
      <point x="116.5" y="569.0" type="qcurve" smooth="yes" name="inserted"/>
      <point x="153" y="612" name="fh02"/>
      <point x="251" y="658"/>
      <point x="307" y="658" type="qcurve" name="at01"/>
      <point x="363" y="658" name="fv01"/>
      <point x="461" y="610" name="fh03"/>
      <point x="497.0" y="566.5" type="qcurve" smooth="yes" name="inserted"/>
      <point x="533" y="523" name="fh04"/>
      <point x="573" y="399"/>
      <point x="573" y="323" type="qcurve" name="dh02"/>
      <point x="573" y="247"/>
      <point x="526" y="125"/>
      <point x="488.0" y="81.5" type="qcurve" smooth="yes" name="inserted"/>
      <point x="450" y="38"/>
      <point x="354" y="-8"/>
      <point x="303" y="-8" type="qcurve" name="ab01"/>
      <point x="252" y="-8"/>
      <point x="156" y="40"/>
      <point x="118.5" y="84.0" type="qcurve" smooth="yes" name="inserted"/>
      <point x="81" y="128"/>
      <point x="37" y="251"/>
    </contour>
    <contour>
      <point x="121" y="326" type="qcurve" name="sh01"/>
      <point x="121" y="273"/>
      <point x="149" y="181"/>
      <point x="174.0" y="147.0" type="qcurve" smooth="yes" name="inserted"/>
      <point x="199" y="113" name="fh05"/>
      <point x="265" y="73"/>
      <point x="303" y="73" type="qcurve" name="sv01"/>
      <point x="340" y="73"/>
      <point x="408" y="111" name="fh06"/>
      <point x="433.5" y="145.0" type="qcurve" smooth="yes" name="inserted"/>
      <point x="459" y="179"/>
      <point x="489" y="271"/>
      <point x="489" y="324" type="qcurve" name="sh02"/>
      <point x="489" y="360"/>
      <point x="471" y="448"/>
      <point x="449.5" y="486.5" type="qcurve" smooth="yes" name="inserted"/>
      <point x="428" y="525" name="fh07"/>
      <point x="358" y="577"/>
      <point x="307" y="577" type="qcurve" name="sv02"/>
      <point x="256" y="577"/>
      <point x="185" y="526" name="fh08"/>
      <point x="163.0" y="488.0" type="qcurve" smooth="yes" name="inserted"/>
      <point x="141" y="450"/>
      <point x="121" y="362"/>
    </contour>
  </outline>
</glyph>
<glyph name="one" format="1">
  <advance width="290"/>
  <unicode hex="0031"/>
  <outline>
    <contour>
      <point x="23" y="79" type="line" name="sh01"/>
      <point x="102" y="79" type="line" name="dh01"/>
      <point x="102" y="569" type="line"/>
      <point x="34" y="569" type="line" name="sh02"/>
      <point x="34" y="650" type="line" name="at01"/>
      <point x="186" y="650" type="line"/>
      <point x="186" y="79" type="line" name="dh02"/>
      <point x="265" y="79" type="line" name="sh03"/>
      <point x="265" y="0" type="line"/>
      <point x="23" y="0" type="line" name="ab01"/>
    </contour>
  </outline>
</glyph>
<glyph name="two" format="1">
  <advance width="519"/>
  <unicode hex="0032"/>
  <outline>
    <contour>
      <point x="253" y="81" type="qcurve" name="sh02"/>
      <point x="417" y="81" type="line" name="sv01"/>
      <point x="417" y="174" type="line" name="sh04"/>
      <point x="496" y="174" type="line" name="sh03"/>
      <point x="496" y="0" type="line" name="ab01"/>
      <point x="53" y="0" type="line" name="sh01"/>
      <point x="115" y="62"/>
      <point x="231" y="179" name="iv01"/>
      <point x="276.0" y="233.5" type="qcurve" smooth="yes" name="inserted"/>
      <point x="321" y="288"/>
      <point x="375" y="391"/>
      <point x="375" y="438" type="qcurve" name="sh05"/>
      <point x="375" y="475"/>
      <point x="351" y="527"/>
      <point x="332.5" y="544.0" type="qcurve" smooth="yes" name="inserted"/>
      <point x="314" y="561"/>
      <point x="271" y="577"/>
      <point x="253" y="577" type="qcurve" name="sv02"/>
      <point x="215" y="577"/>
      <point x="167" y="551"/>
      <point x="153.0" y="532.0" type="qcurve" smooth="yes" name="inserted"/>
      <point x="139" y="513"/>
      <point x="128" y="471"/>
      <point x="128" y="455" type="qcurve" name="sh06"/>
      <point x="128" y="422"/>
      <point x="148" y="371" name="sv04"/>
      <point x="167" y="351" type="qcurve" name="sh07"/>
      <point x="117" y="300" type="line" name="sv03"/>
      <point x="100" y="311"/>
      <point x="73" y="348"/>
      <point x="63.5" y="369.5" type="qcurve" smooth="yes" name="inserted"/>
      <point x="54" y="391"/>
      <point x="44" y="436"/>
      <point x="44" y="455" type="qcurve" name="dh01"/>
      <point x="44" y="495"/>
      <point x="71" y="569" name="fh01"/>
      <point x="97.5" y="597.0" type="qcurve" smooth="yes" name="inserted"/>
      <point x="124" y="625" name="fh02"/>
      <point x="202" y="658"/>
      <point x="253" y="658" type="qcurve" name="at01"/>
      <point x="299" y="658"/>
      <point x="375" y="624" name="fh03"/>
      <point x="402.0" y="595.5" type="qcurve" smooth="yes" name="inserted"/>
      <point x="429" y="567" name="fh04"/>
      <point x="459" y="492"/>
      <point x="459" y="450" type="qcurve" name="dh02"/>
      <point x="459" y="400"/>
      <point x="424" y="307"/>
      <point x="395.5" y="261.0" type="qcurve" smooth="yes" name="inserted"/>
      <point x="367" y="215"/>
      <point x="293" y="126" name="iv02"/>
    </contour>
  </outline>
</glyph>
<glyph name="five" format="1">
  <advance width="543"/>
  <unicode hex="0035"/>
  <outline>
    <contour>
      <point x="430" y="650" type="line"/>
      <point x="430" y="521" type="line" name="ih01"/>
      <point x="351" y="521" type="line" name="sh01"/>
      <point x="351" y="569" type="line"/>
      <point x="227" y="569" type="line" name="sh02"/>
      <point x="227" y="422" type="line"/>
      <point x="233" y="423"/>
      <point x="246" y="424"/>
      <point x="253" y="424" type="qcurve" name="iv01"/>
      <point x="298" y="424"/>
      <point x="377" y="391" name="fh01"/>
      <point x="407.0" y="361.5" type="qcurve" smooth="yes" name="inserted"/>
      <point x="437" y="332" name="fh02"/>
      <point x="472" y="254"/>
      <point x="472" y="209" type="qcurve" name="dh02"/>
      <point x="472" y="164"/>
      <point x="437" y="85" name="fh03"/>
      <point x="407.0" y="55.5" type="qcurve" smooth="yes" name="inserted"/>
      <point x="377" y="26" name="fh04"/>
      <point x="298" y="-8"/>
      <point x="253" y="-8" type="qcurve" name="ab01"/>
      <point x="209" y="-8"/>
      <point x="132" y="24"/>
      <point x="103" y="53" type="qcurve" name="dh01"/>
      <point x="164" y="109" type="line" name="sv01"/>
      <point x="181" y="92"/>
      <point x="227" y="73"/>
      <point x="253" y="73" type="qcurve" name="sv02"/>
      <point x="281" y="73"/>
      <point x="330" y="95"/>
      <point x="348.5" y="113.5" type="qcurve" smooth="yes" name="inserted"/>
      <point x="367" y="132"/>
      <point x="389" y="181"/>
      <point x="389" y="209" type="qcurve" name="sh03"/>
      <point x="389" y="237"/>
      <point x="367" y="286"/>
      <point x="348.5" y="304.0" type="qcurve" smooth="yes" name="inserted"/>
      <point x="330" y="322"/>
      <point x="281" y="343"/>
      <point x="253" y="343" type="qcurve" name="sv03"/>
      <point x="218" y="343"/>
      <point x="160" y="320" name="fh05"/>
      <point x="143" y="292" type="qcurve" name="ih02"/>
      <point x="143" y="650" type="line" name="at01"/>
    </contour>
  </outline>
</glyph>
<glyph name="six" format="1">
  <advance width="520"/>
  <unicode hex="0036"/>
  <outline>
    <contour>
      <point x="134" y="209" type="qcurve" name="sh01"/>
      <point x="134" y="181"/>
      <point x="154" y="132"/>
      <point x="172.0" y="113.5" type="qcurve" smooth="yes" name="inserted"/>
      <point x="190" y="95"/>
      <point x="238" y="73"/>
      <point x="265" y="73" type="qcurve" name="sv01"/>
      <point x="293" y="73"/>
      <point x="342" y="95"/>
      <point x="360.5" y="113.5" type="qcurve" smooth="yes" name="inserted"/>
      <point x="379" y="132"/>
      <point x="401" y="181"/>
      <point x="401" y="209" type="qcurve" name="sh02"/>
      <point x="401" y="237"/>
      <point x="379" y="286"/>
      <point x="360.5" y="304.0" type="qcurve" smooth="yes" name="inserted"/>
      <point x="342" y="322"/>
      <point x="293" y="343"/>
      <point x="265" y="343" type="qcurve" name="sv03"/>
      <point x="238" y="343"/>
      <point x="190" y="322"/>
      <point x="172.0" y="304.0" type="qcurve" smooth="yes" name="inserted"/>
      <point x="154" y="286"/>
      <point x="134" y="237"/>
    </contour>
    <contour>
      <point x="48" y="197" type="qcurve" name="dh01"/>
      <point x="48" y="269" name="fh01"/>
      <point x="109" y="394" name="fh02"/>
      <point x="157.0" y="448.0" type="qcurve" smooth="yes" name="inserted"/>
      <point x="205" y="502" name="fh03"/>
      <point x="323" y="596"/>
      <point x="379" y="637" type="qcurve" name="sh03"/>
      <point x="392" y="621"/>
      <point x="418" y="589"/>
      <point x="431" y="573" type="qcurve" name="ih01"/>
      <point x="366" y="530"/>
      <point x="276" y="455" name="fh04"/>
      <point x="244" y="423" type="qcurve" name="ih02"/>
      <point x="249" y="423"/>
      <point x="260" y="424"/>
      <point x="265" y="424" type="qcurve" name="sv02"/>
      <point x="310" y="424"/>
      <point x="389" y="391" name="fh05"/>
      <point x="419.0" y="361.5" type="qcurve" smooth="yes" name="inserted"/>
      <point x="449" y="332" name="fh06"/>
      <point x="484" y="254"/>
      <point x="484" y="209" type="qcurve" name="dh02"/>
      <point x="484" y="164"/>
      <point x="449" y="85" name="fh07"/>
      <point x="419.0" y="55.5" type="qcurve" smooth="yes" name="inserted"/>
      <point x="389" y="26" name="fh08"/>
      <point x="310" y="-8"/>
      <point x="265" y="-8" type="qcurve" name="ab01"/>
      <point x="222" y="-8"/>
      <point x="145" y="24" name="fh09"/>
      <point x="115.5" y="51.5" type="qcurve" smooth="yes" name="inserted"/>
      <point x="86" y="79" name="fh10"/>
      <point x="50" y="154"/>
    </contour>
  </outline>
</glyph>
<glyph name="colon" format="1">
  <advance width="175"/>
  <unicode hex="003A"/>
  <outline>
    <contour>
      <point x="33" y="302" type="qcurve" name="sh01"/>
      <point x="33" y="325"/>
      <point x="65" y="355"/>
      <point x="85" y="355" type="qcurve" name="av01"/>
      <point x="104" y="355"/>
      <point x="136" y="325"/>
      <point x="136" y="302" type="qcurve" name="sh03"/>
      <point x="136" y="279"/>
      <point x="104" y="250"/>
      <point x="85" y="250" type="qcurve" name="sv01"/>
      <point x="65" y="250"/>
      <point x="33" y="279"/>
    </contour>
    <contour>
      <point x="33" y="52" type="qcurve" name="ah01"/>
      <point x="33" y="75"/>
      <point x="65" y="105"/>
      <point x="85" y="105" type="qcurve" name="sv02"/>
      <point x="104" y="105"/>
      <point x="136" y="75"/>
      <point x="136" y="52" type="qcurve" name="sh02"/>
      <point x="136" y="29"/>
      <point x="104" y="0"/>
      <point x="85" y="0" type="qcurve" name="ab01"/>
      <point x="65" y="0"/>
      <point x="33" y="29"/>
    </contour>
  </outline>
</glyph>
<glyph name="semicolon" format="1">
  <advance width="201"/>
  <unicode hex="003B"/>
  <outline>
    <contour>
      <point x="64" y="302" type="qcurve" name="sh03"/>
      <point x="64" y="325"/>
      <point x="96" y="355"/>
      <point x="116" y="355" type="qcurve" name="av01"/>
      <point x="135" y="355"/>
      <point x="167" y="325"/>
      <point x="167" y="302" type="qcurve" name="sh02"/>
      <point x="167" y="279"/>
      <point x="135" y="250"/>
      <point x="116" y="250" type="qcurve" name="sv01"/>
      <point x="96" y="250"/>
      <point x="64" y="279"/>
    </contour>
    <contour>
      <point x="149" y="86" type="line" name="sh01"/>
      <point x="127" y="34"/>
      <point x="85" y="-68"/>
      <point x="63" y="-120" type="qcurve" name="sh04"/>
      <point x="-12" y="-120" type="line" name="ah01"/>
      <point x="8" y="-68" name="fh01"/>
      <point x="45" y="34"/>
      <point x="65" y="86" type="qcurve" name="sh05"/>
    </contour>
  </outline>
</glyph>
<glyph name="greater" format="1">
  <advance width="650"/>
  <unicode hex="003E"/>
  <outline>
    <contour>
      <point x="116" y="-14" type="qcurve" name="sv01"/>
      <point x="116" y="99" type="line" name="sh02"/>
      <point x="176" y="134"/>
      <point x="297" y="203"/>
      <point x="357" y="238" type="qcurve" name="sh03"/>
      <point x="297" y="273"/>
      <point x="176" y="342"/>
      <point x="116" y="377" type="qcurve" name="sh01"/>
      <point x="116" y="490" type="line" name="sv02"/>
      <point x="226" y="427"/>
      <point x="443" y="301"/>
      <point x="553" y="238" type="qcurve" name="ah01"/>
      <point x="443" y="175"/>
      <point x="226" y="49"/>
    </contour>
  </outline>
</glyph>
<glyph name="question" format="1">
  <advance width="452"/>
  <unicode hex="003F"/>
  <outline>
    <contour>
      <point x="114" y="552" type="qcurve" name="sh01"/>
      <point x="96" y="559"/>
      <point x="59" y="572"/>
      <point x="41" y="579" type="qcurve" name="dh01"/>
      <point x="48" y="601"/>
      <point x="74" y="654" name="fh01"/>
      <point x="97.0" y="677.0" type="qcurve" smooth="yes" name="inserted"/>
      <point x="120" y="700" name="fh02"/>
      <point x="190" y="732"/>
      <point x="241" y="732" type="qcurve" name="av01"/>
      <point x="282" y="732"/>
      <point x="354" y="701" name="fv01"/>
      <point x="380.5" y="674.5" type="qcurve" smooth="yes" name="inserted"/>
      <point x="407" y="648" name="fh03"/>
      <point x="437" y="577"/>
      <point x="437" y="537" type="qcurve" name="dh02"/>
      <point x="437" y="481"/>
      <point x="384" y="398"/>
      <point x="339" y="364" type="qcurve" name="iv01"/>
      <point x="325" y="354"/>
      <point x="293" y="333"/>
      <point x="279.0" y="319.5" type="qcurve" smooth="yes" name="inserted"/>
      <point x="265" y="306"/>
      <point x="247" y="269"/>
      <point x="247" y="242" type="qcurve"/>
      <point x="247" y="164" type="line" name="sh02"/>
      <point x="163" y="164" type="line" name="ih01"/>
      <point x="163" y="261" type="line"/>
      <point x="163" y="293"/>
      <point x="183" y="333"/>
      <point x="200.0" y="348.5" type="qcurve" smooth="yes" name="inserted"/>
      <point x="217" y="364"/>
      <point x="259" y="391"/>
      <point x="282" y="409" type="qcurve" name="iv02"/>
      <point x="318" y="436"/>
      <point x="352" y="500"/>
      <point x="352" y="537" type="qcurve" name="sh03"/>
      <point x="352" y="586"/>
      <point x="291" y="651"/>
      <point x="241" y="651" type="qcurve" name="sv02"/>
      <point x="185" y="651"/>
      <point x="129" y="601"/>
    </contour>
    <contour>
      <point x="204" y="0" type="qcurve" name="ab01"/>
      <point x="184" y="0"/>
      <point x="152" y="29"/>
      <point x="152" y="52" type="qcurve" name="sh04"/>
      <point x="152" y="75"/>
      <point x="184" y="105"/>
      <point x="204" y="105" type="qcurve" name="sv01"/>
      <point x="223" y="105"/>
      <point x="255" y="75"/>
      <point x="255" y="52" type="qcurve" name="sh05"/>
      <point x="255" y="29"/>
      <point x="223" y="0"/>
    </contour>
  </outline>
</glyph>
<glyph name="A" format="1">
  <advance width="788"/>
  <unicode hex="0041"/>
  <outline>
    <contour>
      <point x="35" y="79" type="line" name="sh02"/>
      <point x="117" y="79" type="line" name="sh01"/>
      <point x="186" y="244"/>
      <point x="325" y="567"/>
      <point x="394" y="732" type="qcurve" name="ah01"/>
      <point x="463" y="567"/>
      <point x="602" y="244"/>
      <point x="671" y="79" type="qcurve" name="sh03"/>
      <point x="753" y="79" type="line" name="sh04"/>
      <point x="753" y="0" type="line"/>
      <point x="531" y="0" type="line" name="sv01"/>
      <point x="531" y="79" type="line" name="sh06"/>
      <point x="587" y="79" type="line" name="sh05"/>
      <point x="566" y="129"/>
      <point x="525" y="227"/>
      <point x="504" y="277" type="qcurve" name="ih01"/>
      <point x="284" y="277" type="line" name="ih02"/>
      <point x="200" y="79" type="line" name="sh08"/>
      <point x="257" y="79" type="line" name="sh09"/>
      <point x="257" y="0" type="line"/>
      <point x="35" y="0" type="line" name="ab01"/>
    </contour>
    <contour>
      <point x="403" y="515" type="line"/>
      <point x="393" y="548" type="line" name="sh07"/>
      <point x="392" y="546"/>
      <point x="390" y="536"/>
      <point x="388" y="530" type="qcurve"/>
      <point x="387.0" y="526.5" name="inserted"/>
      <point x="384.5" y="519.0"/>
      <point x="383" y="515" type="qcurve"/>
      <point x="376.5" y="500.5" name="inserted"/>
      <point x="364.5" y="472.0"/>
      <point x="359" y="458" type="qcurve"/>
      <point x="349" y="434"/>
      <point x="327" y="378"/>
      <point x="318" y="356" type="qcurve" name="ih03"/>
      <point x="470" y="356" type="line" name="ih04"/>
    </contour>
  </outline>
</glyph>
<glyph name="B" format="1">
  <advance width="542"/>
  <unicode hex="0042"/>
  <outline>
    <contour>
      <point x="35" y="79" type="line" name="sh01"/>
      <point x="80" y="79" type="line" name="dh01"/>
      <point x="80" y="621" type="line" name="sv02"/>
      <point x="35" y="621" type="line" name="sh02"/>
      <point x="35" y="700" type="line" name="at01"/>
      <point x="263" y="700" type="line"/>
      <point x="312" y="700"/>
      <point x="393" y="680" name="fh01"/>
      <point x="421.5" y="659.0" type="qcurve" smooth="yes" name="inserted"/>
      <point x="450" y="638" name="fh02"/>
      <point x="482" y="571" name="fh03"/>
      <point x="482" y="525" type="qcurve" name="ih01"/>
      <point x="482" y="463"/>
      <point x="423" y="369" name="fv01"/>
      <point x="363" y="352" type="qcurve" name="ih02"/>
      <point x="391" y="346"/>
      <point x="444" y="318" name="fh04"/>
      <point x="463.5" y="296.0" type="qcurve" smooth="yes" name="inserted"/>
      <point x="483" y="274"/>
      <point x="507" y="216"/>
      <point x="507" y="180" type="qcurve" name="dh02"/>
      <point x="507" y="135"/>
      <point x="469" y="68" name="fh05"/>
      <point x="437.5" y="45.5" type="qcurve" smooth="yes" name="inserted"/>
      <point x="406" y="23" name="fh06"/>
      <point x="324" y="0"/>
      <point x="281" y="0" type="qcurve"/>
      <point x="35" y="0" type="line" name="ab01"/>
    </contour>
    <contour>
      <point x="163" y="313" type="line" name="sv03"/>
      <point x="163" y="79" type="line" name="sh03"/>
      <point x="274" y="79" type="line"/>
      <point x="305" y="79"/>
      <point x="359" y="93"/>
      <point x="379.5" y="107.5" type="qcurve" smooth="yes" name="inserted"/>
      <point x="400" y="122" name="fh07"/>
      <point x="424" y="164"/>
      <point x="424" y="193" type="qcurve" name="sh05"/>
      <point x="424" y="224"/>
      <point x="396" y="270" name="fh08"/>
      <point x="373.5" y="284.5" type="qcurve" smooth="yes" name="inserted"/>
      <point x="351" y="299"/>
      <point x="291" y="313"/>
      <point x="260" y="313" type="qcurve"/>
    </contour>
    <contour>
      <point x="163" y="621" type="line" name="sv01"/>
      <point x="163" y="392" type="line" name="sh04"/>
      <point x="271" y="392" type="line"/>
      <point x="330" y="392"/>
      <point x="399" y="458"/>
      <point x="399" y="512" type="qcurve" name="sh06"/>
      <point x="399" y="571"/>
      <point x="327" y="621"/>
      <point x="269" y="621" type="qcurve"/>
    </contour>
  </outline>
</glyph>
<glyph name="C" format="1">
  <advance width="610"/>
  <unicode hex="0043"/>
  <outline>
    <contour>
      <point x="496" y="546" type="line" name="sh01"/>
      <point x="496" y="607" type="line"/>
      <point x="471.0" y="618.0" name="inserted"/>
      <point x="419.0" y="629.0"/>
      <point x="392" y="629" type="qcurve" name="sv01"/>
      <point x="335" y="629"/>
      <point x="236" y="585"/>
      <point x="198.5" y="546.5" type="qcurve" smooth="yes" name="inserted"/>
      <point x="161" y="508"/>
      <point x="118" y="406"/>
      <point x="118" y="349" type="qcurve" name="sh02"/>
      <point x="118" y="292"/>
      <point x="161" y="190"/>
      <point x="198.5" y="152.5" type="qcurve" smooth="yes" name="inserted"/>
      <point x="236" y="115"/>
      <point x="335" y="71"/>
      <point x="392" y="71" type="qcurve" name="sv02"/>
      <point x="429.0" y="71.0" name="inserted"/>
      <point x="497.5" y="89.5"/>
      <point x="529" y="108" type="qcurve" name="sv03"/>
      <point x="574" y="42" type="line" name="sh03"/>
      <point x="534" y="19"/>
      <point x="443" y="-8"/>
      <point x="392" y="-8" type="qcurve" name="ab01"/>
      <point x="318" y="-8"/>
      <point x="188" y="48" name="fh01"/>
      <point x="139.5" y="96.5" type="qcurve" smooth="yes" name="inserted"/>
      <point x="91" y="145" name="fh02"/>
      <point x="35" y="275"/>
      <point x="35" y="349" type="qcurve" name="dh01"/>
      <point x="35" y="423"/>
      <point x="91" y="554" name="fh03"/>
      <point x="139.5" y="602.5" type="qcurve" smooth="yes" name="inserted"/>
      <point x="188" y="651" name="fh04"/>
      <point x="318" y="708"/>
      <point x="392" y="708" type="qcurve" name="at01"/>
      <point x="443" y="708"/>
      <point x="534" y="682"/>
      <point x="575" y="658" type="qcurve"/>
      <point x="575" y="546" type="line" name="dh02"/>
    </contour>
  </outline>
</glyph>
<glyph name="E" format="1">
  <advance width="571"/>
  <unicode hex="0045"/>
  <outline>
    <contour>
      <point x="35" y="79" type="line" name="sh01"/>
      <point x="91" y="79" type="line" name="dh01"/>
      <point x="91" y="621" type="line"/>
      <point x="35" y="621" type="line" name="sh02"/>
      <point x="35" y="700" type="line" name="at01"/>
      <point x="522" y="700" type="line"/>
      <point x="522" y="546" type="line" name="ih01"/>
      <point x="443" y="546" type="line" name="sh03"/>
      <point x="443" y="621" type="line"/>
      <point x="174" y="621" type="line" name="sv01"/>
      <point x="174" y="392" type="line" name="sh05"/>
      <point x="483" y="392" type="line"/>
      <point x="483" y="313" type="line" name="ih02"/>
      <point x="174" y="313" type="line" name="sv02"/>
      <point x="174" y="79" type="line" name="sh04"/>
      <point x="457" y="79" type="line"/>
      <point x="457" y="154" type="line" name="sh06"/>
      <point x="536" y="154" type="line" name="dh02"/>
      <point x="536" y="0" type="line"/>
      <point x="35" y="0" type="line" name="ab01"/>
    </contour>
  </outline>
</glyph>
<glyph name="G" format="1">
  <advance width="609"/>
  <unicode hex="0047"/>
  <outline>
    <contour>
      <point x="574" y="298" type="line"/>
      <point x="574" y="40" type="line" name="dh02"/>
      <point x="534" y="17"/>
      <point x="443" y="-10"/>
      <point x="392" y="-10" type="qcurve" name="ab01"/>
      <point x="318" y="-10"/>
      <point x="188" y="46" name="fh01"/>
      <point x="139.5" y="94.5" type="qcurve" smooth="yes" name="inserted"/>
      <point x="91" y="143" name="fh02"/>
      <point x="35" y="273"/>
      <point x="35" y="347" type="qcurve" name="dh01"/>
      <point x="35" y="421"/>
      <point x="91" y="552" name="fh03"/>
      <point x="139.5" y="600.5" type="qcurve" smooth="yes" name="inserted"/>
      <point x="188" y="649"/>
      <point x="318" y="706"/>
      <point x="392" y="706" type="qcurve" name="at01"/>
      <point x="443" y="706"/>
      <point x="534" y="680"/>
      <point x="575" y="656" type="qcurve" name="sh01"/>
      <point x="529" y="589" type="line" name="sv01"/>
      <point x="498" y="607"/>
      <point x="430" y="627"/>
      <point x="392" y="627" type="qcurve" name="sv02"/>
      <point x="335" y="627"/>
      <point x="236" y="583"/>
      <point x="198.5" y="544.5" type="qcurve" smooth="yes" name="inserted"/>
      <point x="161" y="506"/>
      <point x="118" y="404"/>
      <point x="118" y="347" type="qcurve" name="sh02"/>
      <point x="118" y="290"/>
      <point x="161" y="188"/>
      <point x="198.5" y="150.5" type="qcurve" smooth="yes" name="inserted"/>
      <point x="236" y="113"/>
      <point x="335" y="69"/>
      <point x="392" y="69" type="qcurve" name="sv03"/>
      <point x="418.0" y="69.0" name="inserted"/>
      <point x="467.5" y="78.0"/>
      <point x="491" y="87" type="qcurve" name="sh03"/>
      <point x="491" y="219" type="line"/>
      <point x="388" y="219" type="line" name="sh04"/>
      <point x="388" y="298" type="line" name="iv01"/>
    </contour>
  </outline>
</glyph>
<glyph name="H" format="1">
  <advance width="772"/>
  <unicode hex="0048"/>
  <outline>
    <contour>
      <point x="495" y="700" type="line" name="sv01"/>
      <point x="737" y="700" type="line"/>
      <point x="737" y="621" type="line" name="sh02"/>
      <point x="658" y="621" type="line" name="sv04"/>
      <point x="658" y="79" type="line" name="dh02"/>
      <point x="737" y="79" type="line" name="sh01"/>
      <point x="737" y="0" type="line"/>
      <point x="495" y="0" type="line" name="sv05"/>
      <point x="495" y="79" type="line" name="sh04"/>
      <point x="575" y="79" type="line" name="sh03"/>
      <point x="575" y="313" type="line"/>
      <point x="197" y="313" type="line" name="sv06"/>
      <point x="197" y="79" type="line" name="sh05"/>
      <point x="277" y="79" type="line" name="sh06"/>
      <point x="277" y="0" type="line"/>
      <point x="35" y="0" type="line" name="ab01"/>
      <point x="35" y="79" type="line" name="sh07"/>
      <point x="114" y="79" type="line" name="dh01"/>
      <point x="114" y="621" type="line"/>
      <point x="35" y="621" type="line" name="sh08"/>
      <point x="35" y="700" type="line" name="at01"/>
      <point x="277" y="700" type="line"/>
      <point x="277" y="621" type="line" name="sh09"/>
      <point x="197" y="621" type="line" name="sv02"/>
      <point x="197" y="392" type="line" name="sh10"/>
      <point x="575" y="392" type="line" name="sh11"/>
      <point x="575" y="621" type="line" name="sv03"/>
      <point x="495" y="621" type="line" name="sh12"/>
    </contour>
  </outline>
</glyph>
<glyph name="I" format="1">
  <advance width="312"/>
  <unicode hex="0049"/>
  <outline>
    <contour>
      <point x="35" y="79" type="line" name="sh01"/>
      <point x="114" y="79" type="line" name="dh01"/>
      <point x="114" y="621" type="line"/>
      <point x="35" y="621" type="line" name="sh02"/>
      <point x="35" y="700" type="line" name="at01"/>
      <point x="277" y="700" type="line"/>
      <point x="277" y="621" type="line" name="sh04"/>
      <point x="197" y="621" type="line" name="sv01"/>
      <point x="197" y="79" type="line" name="dh02"/>
      <point x="277" y="79" type="line" name="sh03"/>
      <point x="277" y="0" type="line"/>
      <point x="35" y="0" type="line" name="ab01"/>
    </contour>
  </outline>
</glyph>
<glyph name="J" format="1">
  <advance width="311"/>
  <unicode hex="004A"/>
  <outline>
    <contour>
      <point x="35" y="700" type="line" name="at01"/>
      <point x="276" y="700" type="line"/>
      <point x="276" y="90" type="line" name="dh02"/>
      <point x="276" y="34"/>
      <point x="239" y="-52"/>
      <point x="207.0" y="-81.5" type="qcurve" smooth="yes" name="inserted"/>
      <point x="175" y="-111"/>
      <point x="86" y="-143"/>
      <point x="35" y="-144" type="qcurve" name="av01"/>
      <point x="35" y="-65" type="line" name="sh01"/>
      <point x="104" y="-61" name="fh01"/>
      <point x="193" y="19"/>
      <point x="193" y="93" type="qcurve" name="sh02"/>
      <point x="193" y="621" type="line"/>
      <point x="35" y="621" type="line" name="dh01"/>
    </contour>
  </outline>
</glyph>
<glyph name="K" format="1">
  <advance width="686"/>
  <unicode hex="004B"/>
  <outline>
    <contour>
      <point x="429" y="79" type="line" name="sh03"/>
      <point x="481" y="79" type="line" name="sh02"/>
      <point x="424" y="150"/>
      <point x="313" y="291"/>
      <point x="257" y="363" type="qcurve" name="ih01"/>
      <point x="195" y="304" type="line" name="sv01"/>
      <point x="195" y="79" type="line" name="dh02"/>
      <point x="277" y="79" type="line" name="sh05"/>
      <point x="277" y="0" type="line"/>
      <point x="35" y="0" type="line" name="ab01"/>
      <point x="35" y="79" type="line" name="sh06"/>
      <point x="112" y="79" type="line" name="dh01"/>
      <point x="112" y="621" type="line"/>
      <point x="35" y="621" type="line" name="sh07"/>
      <point x="35" y="700" type="line" name="at01"/>
      <point x="257" y="700" type="line"/>
      <point x="257" y="621" type="line" name="sh08"/>
      <point x="195" y="621" type="line" name="sh09"/>
      <point x="195" y="426" type="line"/>
      <point x="194" y="418"/>
      <point x="193" y="402"/>
      <point x="192" y="394" type="qcurve" name="iv01"/>
      <point x="211" y="417" type="line"/>
      <point x="425" y="621" type="line" name="sh10"/>
      <point x="388" y="621" type="line" name="sh11"/>
      <point x="388" y="700" type="line" name="sv02"/>
      <point x="610" y="700" type="line"/>
      <point x="610" y="621" type="line" name="sh12"/>
      <point x="527" y="621" type="line" name="sh04"/>
      <point x="312" y="416" type="line" name="ih02"/>
      <point x="379" y="331"/>
      <point x="512" y="164"/>
      <point x="579" y="79" type="qcurve" name="sh01"/>
      <point x="651" y="79" type="line" name="sh13"/>
      <point x="651" y="0" type="line"/>
      <point x="429" y="0" type="line" name="sv03"/>
    </contour>
  </outline>
</glyph>
<glyph name="M" format="1">
  <advance width="976"/>
  <unicode hex="004D"/>
  <outline>
    <contour>
      <point x="829" y="700" type="qcurve" name="ih01"/>
      <point x="941" y="700" type="line"/>
      <point x="941" y="621" type="line" name="sh04"/>
      <point x="854" y="621" type="line" name="sv01"/>
      <point x="854" y="79" type="line" name="sh01"/>
      <point x="941" y="79" type="line" name="sh03"/>
      <point x="941" y="0" type="line"/>
      <point x="699" y="0" type="line" name="sv02"/>
      <point x="699" y="79" type="line" name="sh05"/>
      <point x="771" y="79" type="line" name="sh02"/>
      <point x="771" y="470" type="line"/>
      <point x="772" y="478"/>
      <point x="773" y="494"/>
      <point x="774" y="502" type="qcurve" name="ih02"/>
      <point x="766" y="491"/>
      <point x="750" y="467"/>
      <point x="742" y="456" type="qcurve"/>
      <point x="682" y="371"/>
      <point x="551" y="208" name="fh01"/>
      <point x="488" y="125" type="qcurve" name="ah01"/>
      <point x="220" y="475" type="line"/>
      <point x="202" y="502" type="line" name="ih03"/>
      <point x="203" y="494"/>
      <point x="204" y="478"/>
      <point x="205" y="470" type="qcurve"/>
      <point x="205" y="79" type="line" name="sh07"/>
      <point x="277" y="79" type="line" name="sh08"/>
      <point x="277" y="0" type="line"/>
      <point x="35" y="0" type="line" name="ab01"/>
      <point x="35" y="79" type="line" name="sh09"/>
      <point x="122" y="79" type="line" name="sh06"/>
      <point x="122" y="621" type="line"/>
      <point x="35" y="621" type="line" name="sh10"/>
      <point x="35" y="700" type="line" name="at01"/>
      <point x="147" y="700" type="line" name="ih04"/>
      <point x="233" y="589"/>
      <point x="402" y="368" name="fh02"/>
      <point x="488" y="257" type="qcurve" name="sh11"/>
      <point x="574" y="368" name="fh03"/>
      <point x="743" y="589"/>
    </contour>
  </outline>
</glyph>
<glyph name="N" format="1">
  <advance width="855"/>
  <unicode hex="004E"/>
  <outline>
    <contour>
      <point x="35" y="79" type="line" name="sh01"/>
      <point x="122" y="79" type="line" name="dh01"/>
      <point x="122" y="621" type="line"/>
      <point x="35" y="621" type="line" name="sh02"/>
      <point x="35" y="700" type="line" name="at01"/>
      <point x="151" y="700" type="line" name="ih01"/>
      <point x="634" y="177" type="line"/>
      <point x="653" y="151" type="line" name="ih02"/>
      <point x="650" y="183" type="line"/>
      <point x="650" y="621" type="line" name="sh04"/>
      <point x="578" y="621" type="line" name="sh05"/>
      <point x="578" y="700" type="line" name="sv01"/>
      <point x="820" y="700" type="line"/>
      <point x="820" y="621" type="line" name="sh06"/>
      <point x="733" y="621" type="line" name="dh02"/>
      <point x="733" y="-32" type="line" name="av01"/>
      <point x="221" y="512" type="line" name="fh01"/>
      <point x="202" y="538" type="line" name="ih03"/>
      <point x="205" y="506" type="line"/>
      <point x="205" y="79" type="line" name="sh03"/>
      <point x="277" y="79" type="line" name="sh07"/>
      <point x="277" y="0" type="line"/>
      <point x="35" y="0" type="line" name="ab01"/>
    </contour>
  </outline>
</glyph>
<glyph name="O" format="1">
  <advance width="786"/>
  <unicode hex="004F"/>
  <outline>
    <contour>
      <point x="35" y="349" type="qcurve" name="dh01"/>
      <point x="35" y="422"/>
      <point x="91" y="553" name="fh01"/>
      <point x="139.5" y="602.0" type="qcurve" smooth="yes" name="inserted"/>
      <point x="188" y="651" name="fh02"/>
      <point x="318" y="708"/>
      <point x="392" y="708" type="qcurve" name="at01"/>
      <point x="465" y="708"/>
      <point x="596" y="651" name="fh03"/>
      <point x="645.0" y="602.0" type="qcurve" smooth="yes" name="inserted"/>
      <point x="694" y="553" name="fh04"/>
      <point x="751" y="422"/>
      <point x="751" y="349" type="qcurve" name="dh02"/>
      <point x="751" y="275"/>
      <point x="694" y="145" name="fh05"/>
      <point x="645.0" y="96.5" type="qcurve" smooth="yes" name="inserted"/>
      <point x="596" y="48" name="fh06"/>
      <point x="465" y="-8"/>
      <point x="392" y="-8" type="qcurve" name="ab01"/>
      <point x="318" y="-8"/>
      <point x="188" y="48" name="fh07"/>
      <point x="139.5" y="96.5" type="qcurve" smooth="yes" name="inserted"/>
      <point x="91" y="145" name="fh08"/>
      <point x="35" y="275"/>
    </contour>
    <contour>
      <point x="118" y="349" type="qcurve" name="sh01"/>
      <point x="118" y="291"/>
      <point x="161" y="190"/>
      <point x="198.5" y="152.5" type="qcurve" smooth="yes" name="inserted"/>
      <point x="236" y="115"/>
      <point x="336" y="71"/>
      <point x="393" y="71" type="qcurve" name="sv01"/>
      <point x="450" y="71"/>
      <point x="550" y="115"/>
      <point x="587.5" y="152.5" type="qcurve" smooth="yes" name="inserted"/>
      <point x="625" y="190"/>
      <point x="668" y="291"/>
      <point x="668" y="349" type="qcurve" name="sh02"/>
      <point x="668" y="407"/>
      <point x="625" y="508"/>
      <point x="587.5" y="546.0" type="qcurve" smooth="yes" name="inserted"/>
      <point x="550" y="584"/>
      <point x="450" y="628"/>
      <point x="393" y="628" type="qcurve" name="sv02"/>
      <point x="336" y="628"/>
      <point x="236" y="584"/>
      <point x="198.5" y="546.0" type="qcurve" smooth="yes" name="inserted"/>
      <point x="161" y="508"/>
      <point x="118" y="407"/>
    </contour>
  </outline>
</glyph>
<glyph name="Q" format="1">
  <advance width="808"/>
  <unicode hex="0051"/>
  <outline>
    <contour>
      <point x="118" y="349" type="qcurve" name="sh01"/>
      <point x="118" y="292"/>
      <point x="161" y="190"/>
      <point x="198.5" y="152.5" type="qcurve" smooth="yes" name="inserted"/>
      <point x="236" y="115"/>
      <point x="335" y="71"/>
      <point x="392" y="71" type="qcurve" name="sv01"/>
      <point x="449" y="71"/>
      <point x="549" y="115"/>
      <point x="586.5" y="152.5" type="qcurve" smooth="yes" name="inserted"/>
      <point x="624" y="190"/>
      <point x="668" y="292"/>
      <point x="668" y="349" type="qcurve" name="sh02"/>
      <point x="668" y="406"/>
      <point x="624" y="508"/>
      <point x="586.5" y="546.5" type="qcurve" smooth="yes" name="inserted"/>
      <point x="549" y="585"/>
      <point x="449" y="629"/>
      <point x="392" y="629" type="qcurve" name="sv02"/>
      <point x="335" y="629"/>
      <point x="236" y="585"/>
      <point x="198.5" y="546.5" type="qcurve" smooth="yes" name="inserted"/>
      <point x="161" y="508"/>
      <point x="118" y="406"/>
    </contour>
    <contour>
      <point x="35" y="349" type="qcurve" name="dh01"/>
      <point x="35" y="423"/>
      <point x="91" y="554" name="fh01"/>
      <point x="139.5" y="602.5" type="qcurve" smooth="yes" name="inserted"/>
      <point x="188" y="651" name="fh02"/>
      <point x="318" y="708"/>
      <point x="392" y="708" type="qcurve" name="at01"/>
      <point x="466" y="708"/>
      <point x="597" y="651" name="fh03"/>
      <point x="645.5" y="602.5" type="qcurve" smooth="yes" name="inserted"/>
      <point x="694" y="554" name="fh04"/>
      <point x="751" y="423"/>
      <point x="751" y="349" type="qcurve" name="dh02"/>
      <point x="751" y="268"/>
      <point x="683" y="128" name="fh05"/>
      <point x="626" y="79" type="qcurve" name="ih01"/>
      <point x="773" y="79" type="line" name="sh03"/>
      <point x="773" y="0" type="line" name="ab02"/>
      <point x="466" y="0" type="line" name="ih02"/>
      <point x="447.0" y="-4.0" name="inserted"/>
      <point x="410.0" y="-8.0"/>
      <point x="392" y="-8" type="qcurve" name="ab01"/>
      <point x="318" y="-8"/>
      <point x="188" y="48" name="fh06"/>
      <point x="139.5" y="96.5" type="qcurve" smooth="yes" name="inserted"/>
      <point x="91" y="145" name="fh07"/>
      <point x="35" y="275"/>
    </contour>
  </outline>
</glyph>
<glyph name="R" format="1">
  <advance width="576"/>
  <unicode hex="0052"/>
  <outline>
    <contour>
      <point x="35" y="79" type="line" name="sh01"/>
      <point x="80" y="79" type="line" name="dh01"/>
      <point x="80" y="621" type="line" name="sv02"/>
      <point x="35" y="621" type="line" name="sh02"/>
      <point x="35" y="700" type="line" name="at01"/>
      <point x="245" y="700" type="line"/>
      <point x="279" y="700"/>
      <point x="362" y="679"/>
      <point x="398.0" y="656.0" type="qcurve" smooth="yes" name="inserted"/>
      <point x="434" y="633" name="fh01"/>
      <point x="482" y="561"/>
      <point x="482" y="510" type="qcurve" name="dh02"/>
      <point x="482" y="435" name="fh02"/>
      <point x="407" y="334" name="fh03"/>
      <point x="335" y="318" type="qcurve" name="ih01"/>
      <point x="447" y="79" type="line" name="sh04"/>
      <point x="541" y="79" type="line" name="sh05"/>
      <point x="541" y="0" type="line"/>
      <point x="395" y="0" type="line" name="sh07"/>
      <point x="248" y="312" type="line" name="sh06"/>
      <point x="205" y="312" type="line"/>
      <point x="163" y="312" type="line" name="iv01"/>
      <point x="163" y="79" type="line" name="sh03"/>
      <point x="277" y="79" type="line" name="sh08"/>
      <point x="277" y="0" type="line"/>
      <point x="35" y="0" type="line" name="ab01"/>
    </contour>
    <contour>
      <point x="163" y="392" type="line" name="sh09"/>
      <point x="250" y="392" type="line"/>
      <point x="294" y="392"/>
      <point x="351" y="415"/>
      <point x="368.0" y="432.0" type="qcurve" smooth="yes" name="inserted"/>
      <point x="385" y="449"/>
      <point x="399" y="491"/>
      <point x="399" y="510" type="qcurve" name="sh10"/>
      <point x="399" y="532"/>
      <point x="376" y="572"/>
      <point x="356.5" y="587.5" type="qcurve" smooth="yes" name="inserted"/>
      <point x="337" y="603"/>
      <point x="282" y="621"/>
      <point x="251" y="621" type="qcurve"/>
      <point x="163" y="621" type="line" name="sv01"/>
    </contour>
  </outline>
</glyph>
<glyph name="S" format="1">
  <advance width="478"/>
  <unicode hex="0053"/>
  <outline>
    <contour>
      <point x="21" y="93" type="qcurve"/>
      <point x="21" y="209" type="line" name="sh01"/>
      <point x="100" y="209" type="line" name="sh02"/>
      <point x="100" y="120" type="line"/>
      <point x="126" y="100"/>
      <point x="198" y="71"/>
      <point x="243" y="71" type="qcurve" name="sv01"/>
      <point x="269" y="71"/>
      <point x="317" y="86" name="mh01"/>
      <point x="335.5" y="100.5" type="qcurve" smooth="yes" name="inserted"/>
      <point x="354" y="115"/>
      <point x="376" y="159"/>
      <point x="376" y="188" type="qcurve" name="sh03"/>
      <point x="376" y="240"/>
      <point x="328" y="296"/>
      <point x="292.0" y="311.5" type="qcurve" smooth="yes" name="inserted"/>
      <point x="256" y="327" name="iv01"/>
      <point x="172" y="349"/>
      <point x="135.5" y="368.0" type="qcurve" smooth="yes" name="inserted"/>
      <point x="99" y="387" name="fh01"/>
      <point x="50" y="455" name="fh02"/>
      <point x="49" y="517" type="qcurve" name="dh01"/>
      <point x="48" y="550"/>
      <point x="68" y="616" name="fh03"/>
      <point x="91.0" y="643.0" type="qcurve" smooth="yes" name="inserted"/>
      <point x="114" y="670"/>
      <point x="190" y="704"/>
      <point x="245" y="704" type="qcurve" name="at01"/>
      <point x="263" y="704"/>
      <point x="305" y="700"/>
      <point x="328.0" y="694.0" type="qcurve" smooth="yes" name="inserted"/>
      <point x="351" y="688"/>
      <point x="400" y="664"/>
      <point x="424" y="644" type="qcurve"/>
      <point x="424" y="546" type="line" name="ih01"/>
      <point x="345" y="546" type="line" name="sh04"/>
      <point x="345" y="605" type="line"/>
      <point x="326" y="613"/>
      <point x="276" y="625"/>
      <point x="246" y="625" type="qcurve" name="sv02"/>
      <point x="188" y="625"/>
      <point x="132" y="559"/>
      <point x="132" y="514" type="qcurve" name="sh05"/>
      <point x="132" y="484"/>
      <point x="160" y="447"/>
      <point x="183.0" y="434.5" type="qcurve" smooth="yes" name="inserted"/>
      <point x="206" y="422"/>
      <point x="265" y="404" name="iv02"/>
      <point x="295.5" y="393.5" type="qcurve" smooth="yes" name="inserted"/>
      <point x="326" y="383"/>
      <point x="385" y="354"/>
      <point x="408.0" y="330.5" type="qcurve" smooth="yes" name="inserted"/>
      <point x="431" y="307" name="fh04"/>
      <point x="459" y="238"/>
      <point x="459" y="187" type="qcurve" name="dh02"/>
      <point x="459" y="142"/>
      <point x="426" y="70"/>
      <point x="397.5" y="44.5" type="qcurve" smooth="yes" name="inserted"/>
      <point x="369" y="19"/>
      <point x="293" y="-8"/>
      <point x="251" y="-8" type="qcurve" name="ab01"/>
      <point x="213" y="-8"/>
      <point x="141" y="9"/>
      <point x="111.0" y="23.0" type="qcurve" smooth="yes" name="inserted"/>
      <point x="81" y="37"/>
      <point x="34" y="73"/>
    </contour>
  </outline>
</glyph>
<glyph name="T" format="1">
  <advance width="623"/>
  <unicode hex="0054"/>
  <outline>
    <contour>
      <point x="185" y="79" type="line" name="sh01"/>
      <point x="271" y="79" type="line" name="dh01"/>
      <point x="271" y="621" type="line"/>
      <point x="114" y="621" type="line" name="sv01"/>
      <point x="114" y="546" type="line" name="sh03"/>
      <point x="35" y="546" type="line" name="sh02"/>
      <point x="35" y="700" type="line" name="at01"/>
      <point x="588" y="700" type="line"/>
      <point x="588" y="546" type="line" name="sh04"/>
      <point x="509" y="546" type="line" name="sh05"/>
      <point x="509" y="621" type="line"/>
      <point x="354" y="621" type="line" name="sv02"/>
      <point x="354" y="79" type="line" name="dh02"/>
      <point x="427" y="79" type="line" name="sh06"/>
      <point x="427" y="0" type="line"/>
      <point x="185" y="0" type="line" name="ab01"/>
    </contour>
  </outline>
</glyph>
<glyph name="Y" format="1">
  <advance width="789"/>
  <unicode hex="0059"/>
  <outline>
    <contour>
      <point x="277" y="79" type="line" name="sh01"/>
      <point x="344" y="79" type="line"/>
      <point x="344" y="270" type="line" name="dh01"/>
      <point x="291" y="358"/>
      <point x="188" y="533"/>
      <point x="136" y="621" type="qcurve" name="sh02"/>
      <point x="35" y="621" type="line" name="sh03"/>
      <point x="35" y="700" type="line" name="at01"/>
      <point x="277" y="700" type="line"/>
      <point x="277" y="621" type="line" name="sh05"/>
      <point x="237" y="621" type="line" name="sh04"/>
      <point x="274" y="560"/>
      <point x="346" y="438"/>
      <point x="383" y="377" type="qcurve"/>
      <point x="394" y="346" type="line" name="ih01"/>
      <point x="395" y="346" type="line"/>
      <point x="407" y="377" type="line"/>
      <point x="551" y="621" type="line" name="sh07"/>
      <point x="512" y="621" type="line" name="sh08"/>
      <point x="512" y="700" type="line" name="sv01"/>
      <point x="754" y="700" type="line"/>
      <point x="754" y="621" type="line" name="sh09"/>
      <point x="653" y="621" type="line" name="sh06"/>
      <point x="601" y="533"/>
      <point x="498" y="357" name="fh01"/>
      <point x="446" y="269" type="qcurve" name="dh02"/>
      <point x="446" y="79" type="line"/>
      <point x="519" y="79" type="line" name="sh10"/>
      <point x="519" y="0" type="line"/>
      <point x="277" y="0" type="line" name="ab01"/>
    </contour>
  </outline>
</glyph>
<glyph name="Z" format="1">
  <advance width="629"/>
  <unicode hex="005A"/>
  <outline>
    <contour>
      <point x="594" y="242" type="line" name="sv01"/>
      <point x="594" y="0" type="line" name="dh02"/>
      <point x="35" y="0" type="line" name="dh01"/>
      <point x="35" y="80" type="line" name="sv03"/>
      <point x="463" y="621" type="line" name="sh01"/>
      <point x="51" y="621" type="line" name="sv04"/>
      <point x="51" y="735" type="line" name="ih02"/>
      <point x="134" y="735" type="line" name="sh02"/>
      <point x="134" y="700" type="line" name="at01"/>
      <point x="565" y="700" type="line"/>
      <point x="565" y="621" type="line" name="ih01"/>
      <point x="137" y="80" type="line" name="sh03"/>
      <point x="515" y="80" type="line" name="sv02"/>
      <point x="515" y="242" type="line" name="sh04"/>
    </contour>
  </outline>
</glyph>
<glyph name="backslash" format="1">
  <advance width="385"/>
  <unicode hex="005C"/>
  <outline>
    <contour>
      <point x="94" y="736" type="line" name="sh01"/>
      <point x="164" y="546"/>
      <point x="302" y="171"/>
      <point x="372" y="-19" type="qcurve" name="sh02"/>
      <point x="278" y="-19" type="line" name="sh03"/>
      <point x="208" y="171"/>
      <point x="70" y="546"/>
      <point x="0" y="736" type="qcurve" name="ah01"/>
    </contour>
  </outline>
</glyph>
<glyph name="grave" format="1">
  <advance width="200"/>
  <unicode hex="0060"/>
  <outline>
    <contour>
      <point x="33" y="612" type="line" name="sv01"/>
      <point x="56" y="579"/>
      <point x="100" y="512"/>
      <point x="123" y="479" type="qcurve" name="sh01"/>
      <point x="64" y="479" type="line" name="av01"/>
      <point x="35" y="512"/>
      <point x="-22" y="579"/>
      <point x="-51" y="612" type="qcurve" name="ah01"/>
    </contour>
  </outline>
</glyph>
<glyph name="a" format="1">
  <advance width="547"/>
  <unicode hex="0061"/>
  <outline>
    <contour>
      <point x="35" y="187" type="qcurve" name="dh01"/>
      <point x="35" y="226"/>
      <point x="66" y="298" name="fh01"/>
      <point x="93.0" y="325.0" type="qcurve" smooth="yes" name="inserted"/>
      <point x="120" y="352" name="fh02"/>
      <point x="194" y="384"/>
      <point x="236" y="384" type="qcurve" name="at01"/>
      <point x="263" y="384"/>
      <point x="309" y="368" name="fh03"/>
      <point x="326.0" y="358.5" type="qcurve" smooth="yes" name="inserted"/>
      <point x="343" y="349" name="fh04"/>
      <point x="363" y="331"/>
      <point x="363" y="328" type="qcurve" name="sh02"/>
      <point x="363" y="339"/>
      <point x="367" y="363"/>
      <point x="367" y="375" type="qcurve" name="at02"/>
      <point x="436" y="375" type="line" name="dh02"/>
      <point x="436" y="79" type="line"/>
      <point x="512" y="79" type="line" name="sh03"/>
      <point x="512" y="0" type="line" name="ab02"/>
      <point x="363" y="0" type="line" name="sh01"/>
      <point x="363" y="20" type="line"/>
      <point x="363" y="40" type="line" name="iv01"/>
      <point x="362" y="37"/>
      <point x="344" y="21" name="fh05"/>
      <point x="327.5" y="12.5" type="qcurve" smooth="yes" name="inserted"/>
      <point x="311" y="4" name="fh06"/>
      <point x="265" y="-9"/>
      <point x="236" y="-9" type="qcurve" name="ab01"/>
      <point x="194" y="-9"/>
      <point x="120" y="22" name="fh07"/>
      <point x="93.0" y="49.0" type="qcurve" smooth="yes" name="inserted"/>
      <point x="66" y="76" name="fh08"/>
      <point x="35" y="147"/>
    </contour>
    <contour>
      <point x="119" y="188" type="qcurve" name="sh04"/>
      <point x="119" y="139"/>
      <point x="184" y="72"/>
      <point x="236" y="72" type="qcurve" name="sv01"/>
      <point x="288" y="72" name="fh09"/>
      <point x="353" y="139" name="fh10"/>
      <point x="353" y="188" type="qcurve" name="sh05"/>
      <point x="353" y="238" name="fh11"/>
      <point x="288" y="303" name="fh12"/>
      <point x="236" y="303" type="qcurve" name="sv02"/>
      <point x="184" y="303"/>
      <point x="119" y="238"/>
    </contour>
  </outline>
</glyph>
<glyph name="d" format="1">
  <advance width="547"/>
  <unicode hex="0064"/>
  <outline>
    <contour>
      <point x="363" y="20" type="line"/>
      <point x="363" y="40" type="line" name="iv01"/>
      <point x="362" y="37"/>
      <point x="344" y="21" name="fh01"/>
      <point x="327.5" y="12.5" type="qcurve" smooth="yes" name="inserted"/>
      <point x="311" y="4" name="fh02"/>
      <point x="265" y="-9"/>
      <point x="236" y="-9" type="qcurve" name="ab01"/>
      <point x="194" y="-9"/>
      <point x="120" y="22" name="fh03"/>
      <point x="93.0" y="49.0" type="qcurve" smooth="yes" name="inserted"/>
      <point x="66" y="76" name="fh04"/>
      <point x="35" y="148"/>
      <point x="35" y="188" type="qcurve" name="dh01"/>
      <point x="35" y="228"/>
      <point x="66" y="299" name="fh05"/>
      <point x="93.0" y="326.0" type="qcurve" smooth="yes" name="inserted"/>
      <point x="120" y="353" name="fv01"/>
      <point x="194" y="384"/>
      <point x="236" y="384" type="qcurve" name="at02"/>
      <point x="261" y="384"/>
      <point x="306" y="370" name="fh06"/>
      <point x="323.0" y="361.0" type="qcurve" smooth="yes" name="inserted"/>
      <point x="340" y="352" name="fh07"/>
      <point x="361" y="334"/>
      <point x="363" y="331" type="qcurve" name="iv02"/>
      <point x="361" y="339"/>
      <point x="355" y="354"/>
      <point x="353" y="362" type="qcurve"/>
      <point x="353" y="671" type="line" name="sh01"/>
      <point x="287" y="671" type="line" name="sh02"/>
      <point x="287" y="750" type="line" name="at01"/>
      <point x="436" y="750" type="line" name="dh02"/>
      <point x="436" y="79" type="line"/>
      <point x="512" y="79" type="line" name="sh03"/>
      <point x="512" y="0" type="line" name="ab02"/>
      <point x="363" y="0" type="line" name="sh04"/>
    </contour>
    <contour>
      <point x="119" y="188" type="qcurve" name="sh05"/>
      <point x="119" y="139"/>
      <point x="184" y="72"/>
      <point x="236" y="72" type="qcurve" name="sv01"/>
      <point x="288" y="72"/>
      <point x="353" y="139"/>
      <point x="353" y="188" type="qcurve" name="sh06"/>
      <point x="353" y="238"/>
      <point x="288" y="303"/>
      <point x="236" y="303" type="qcurve" name="sv02"/>
      <point x="184" y="303"/>
      <point x="119" y="238"/>
    </contour>
  </outline>
</glyph>
<glyph name="e" format="1">
  <advance width="450"/>
  <unicode hex="0065"/>
  <outline>
    <contour>
      <point x="235" y="303" type="qcurve" name="sv01"/>
      <point x="184" y="303" name="fh01"/>
      <point x="120" y="242" name="fv01"/>
      <point x="118" y="196" type="qcurve" name="sh01"/>
      <point x="165" y="213"/>
      <point x="258" y="248"/>
      <point x="305" y="265" type="qcurve" name="sh02"/>
      <point x="291" y="282"/>
      <point x="256" y="303"/>
    </contour>
    <contour>
      <point x="411" y="218" type="qcurve" name="dh02"/>
      <point x="343" y="193"/>
      <point x="208" y="143"/>
      <point x="140" y="118" type="qcurve" name="sh03"/>
      <point x="155" y="97" name="fh02"/>
      <point x="204" y="72"/>
      <point x="235" y="72" type="qcurve" name="sv02"/>
      <point x="258.0" y="72.0" name="inserted"/>
      <point x="296.0" y="88.0"/>
      <point x="311" y="104" type="qcurve" name="sv03"/>
      <point x="362" y="44" type="line" name="ih01"/>
      <point x="337" y="19" name="fh03"/>
      <point x="273" y="-9"/>
      <point x="235" y="-9" type="qcurve" name="ab01"/>
      <point x="193" y="-9"/>
      <point x="120" y="22" name="fh04"/>
      <point x="93.0" y="49.0" type="qcurve" smooth="yes" name="inserted"/>
      <point x="66" y="76" name="fh05"/>
      <point x="35" y="147"/>
      <point x="35" y="188" type="qcurve" name="dh01"/>
      <point x="35" y="228"/>
      <point x="66" y="300" name="fh06"/>
      <point x="93.0" y="326.5" type="qcurve" smooth="yes" name="inserted"/>
      <point x="120" y="353" name="fh07"/>
      <point x="193" y="384"/>
      <point x="235" y="384" type="qcurve" name="at01"/>
      <point x="266" y="384"/>
      <point x="323" y="359" name="fh08"/>
      <point x="345.5" y="337.0" type="qcurve" smooth="yes" name="inserted"/>
      <point x="368" y="315" name="fh09"/>
      <point x="402" y="254"/>
    </contour>
  </outline>
</glyph>
<glyph name="h" format="1">
  <advance width="580"/>
  <unicode hex="0068"/>
  <outline>
    <contour>
      <point x="323" y="79" type="line" name="sh02"/>
      <point x="400" y="79" type="line" name="sh01"/>
      <point x="400" y="234" type="line"/>
      <point x="398" y="261"/>
      <point x="363" y="300" name="fh01"/>
      <point x="325" y="302" type="qcurve" name="sv01"/>
      <point x="299" y="302"/>
      <point x="252" y="284"/>
      <point x="234.0" y="268.0" type="qcurve" smooth="yes" name="inserted"/>
      <point x="216" y="252"/>
      <point x="194" y="208"/>
      <point x="194" y="182" type="qcurve"/>
      <point x="194" y="79" type="line" name="sh03"/>
      <point x="257" y="79" type="line" name="sh04"/>
      <point x="257" y="0" type="line"/>
      <point x="35" y="0" type="line" name="ab01"/>
      <point x="35" y="79" type="line" name="sh05"/>
      <point x="111" y="79" type="line" name="dh01"/>
      <point x="111" y="671" type="line"/>
      <point x="35" y="671" type="line" name="sh06"/>
      <point x="35" y="750" type="line" name="at01"/>
      <point x="194" y="750" type="line"/>
      <point x="194" y="324" type="line" name="sh07"/>
      <point x="191" y="279" type="line" name="iv01"/>
      <point x="213" y="328"/>
      <point x="297" y="381"/>
      <point x="354" y="384" type="qcurve" name="at02"/>
      <point x="413" y="384" name="fv01"/>
      <point x="481" y="322" name="fh02"/>
      <point x="483" y="272" type="qcurve"/>
      <point x="483" y="79" type="line" name="dh02"/>
      <point x="545" y="79" type="line" name="sh08"/>
      <point x="545" y="0" type="line"/>
      <point x="323" y="0" type="line" name="sv02"/>
    </contour>
  </outline>
</glyph>
<glyph name="l" format="1">
  <advance width="292"/>
  <unicode hex="006C"/>
  <outline>
    <contour>
      <point x="35" y="79" type="line" name="sh01"/>
      <point x="111" y="79" type="line" name="dh01"/>
      <point x="111" y="671" type="line"/>
      <point x="45" y="671" type="line" name="sh02"/>
      <point x="45" y="750" type="line" name="at01"/>
      <point x="194" y="750" type="line"/>
      <point x="194" y="79" type="line" name="dh02"/>
      <point x="257" y="79" type="line" name="sh03"/>
      <point x="257" y="0" type="line"/>
      <point x="35" y="0" type="line" name="ab01"/>
    </contour>
  </outline>
</glyph>
<glyph name="m" format="1">
  <advance width="870"/>
  <unicode hex="006D"/>
  <outline>
    <contour>
      <point x="613" y="79" type="line" name="sh04"/>
      <point x="689" y="79" type="line" name="sh03"/>
      <point x="689" y="234" type="line"/>
      <point x="687" y="261"/>
      <point x="652" y="300" name="fh01"/>
      <point x="614" y="302" type="qcurve" name="sv01"/>
      <point x="588" y="302"/>
      <point x="541" y="284"/>
      <point x="523.0" y="268.0" type="qcurve" smooth="yes" name="inserted"/>
      <point x="505" y="252"/>
      <point x="483" y="208"/>
      <point x="483" y="182" type="qcurve" name="iv01"/>
      <point x="483" y="79" type="line" name="dh02"/>
      <point x="546" y="79" type="line" name="sh05"/>
      <point x="546" y="0" type="line"/>
      <point x="324" y="0" type="line" name="sv02"/>
      <point x="324" y="79" type="line" name="sh06"/>
      <point x="400" y="79" type="line" name="sh01"/>
      <point x="400" y="234" type="line"/>
      <point x="398" y="261"/>
      <point x="363" y="300" name="fh02"/>
      <point x="325" y="302" type="qcurve" name="sv03"/>
      <point x="299" y="302"/>
      <point x="252" y="284"/>
      <point x="234.0" y="268.0" type="qcurve" smooth="yes" name="inserted"/>
      <point x="216" y="252"/>
      <point x="194" y="208"/>
      <point x="194" y="182" type="qcurve" name="iv02"/>
      <point x="194" y="79" type="line" name="sh07"/>
      <point x="257" y="79" type="line" name="sh08"/>
      <point x="257" y="0" type="line"/>
      <point x="35" y="0" type="line" name="ab01"/>
      <point x="35" y="79" type="line" name="sh09"/>
      <point x="111" y="79" type="line" name="dh01"/>
      <point x="111" y="296" type="line"/>
      <point x="45" y="296" type="line" name="sh10"/>
      <point x="45" y="375" type="line" name="at01"/>
      <point x="184" y="375" type="line"/>
      <point x="184" y="366" type="line"/>
      <point x="186" y="342"/>
      <point x="189" y="303"/>
      <point x="191" y="279" type="qcurve" name="sh11"/>
      <point x="212" y="327"/>
      <point x="297" y="382"/>
      <point x="354" y="384" type="qcurve" name="at02"/>
      <point x="409" y="384"/>
      <point x="476" y="329" name="fh03"/>
      <point x="482" y="284" type="qcurve" name="sh12"/>
      <point x="504" y="330"/>
      <point x="588" y="382"/>
      <point x="643" y="384" type="qcurve" name="at03"/>
      <point x="702" y="384" name="fh04"/>
      <point x="770" y="322" name="fh05"/>
      <point x="772" y="272" type="qcurve"/>
      <point x="772" y="79" type="line" name="sh02"/>
      <point x="835" y="79" type="line" name="sh13"/>
      <point x="835" y="0" type="line"/>
      <point x="613" y="0" type="line" name="sv04"/>
    </contour>
  </outline>
</glyph>
<glyph name="p" format="1">
  <advance width="548"/>
  <unicode hex="0070"/>
  <outline>
    <contour>
      <point x="45" y="-171" type="line" name="sh01"/>
      <point x="112" y="-171" type="line" name="dh01"/>
      <point x="112" y="296" type="line"/>
      <point x="35" y="296" type="line" name="sh02"/>
      <point x="35" y="375" type="line" name="at01"/>
      <point x="181" y="375" type="line" name="sh04"/>
      <point x="181" y="364"/>
      <point x="183" y="339"/>
      <point x="185" y="328" type="qcurve" name="iv01"/>
      <point x="186" y="331"/>
      <point x="207" y="350" name="fh01"/>
      <point x="224.0" y="359.5" type="qcurve" smooth="yes" name="inserted"/>
      <point x="241" y="369"/>
      <point x="286" y="384"/>
      <point x="312" y="384" type="qcurve" name="at02"/>
      <point x="354" y="384"/>
      <point x="428" y="353" name="fh02"/>
      <point x="455.0" y="326.0" type="qcurve" smooth="yes" name="inserted"/>
      <point x="482" y="299" name="fh03"/>
      <point x="513" y="228"/>
      <point x="513" y="188" type="qcurve" name="dh02"/>
      <point x="513" y="148"/>
      <point x="482" y="76" name="fh04"/>
      <point x="455.0" y="49.0" type="qcurve" smooth="yes" name="inserted"/>
      <point x="428" y="22" name="fh05"/>
      <point x="354" y="-9"/>
      <point x="312" y="-9" type="qcurve" name="ab01"/>
      <point x="284" y="-9"/>
      <point x="240" y="3" name="fh06"/>
      <point x="224.0" y="11.0" type="qcurve" smooth="yes" name="inserted"/>
      <point x="208" y="19" name="fh07"/>
      <point x="189" y="34"/>
      <point x="186" y="38" type="qcurve" name="iv02"/>
      <point x="188" y="33"/>
      <point x="193" y="24"/>
      <point x="195" y="19" type="qcurve"/>
      <point x="195" y="-171" type="line" name="sh03"/>
      <point x="267" y="-171" type="line" name="sh05"/>
      <point x="267" y="-250" type="line"/>
      <point x="45" y="-250" type="line" name="ab02"/>
    </contour>
    <contour>
      <point x="429" y="188" type="qcurve" name="sh06"/>
      <point x="429" y="238"/>
      <point x="364" y="303"/>
      <point x="312" y="303" type="qcurve" name="sv01"/>
      <point x="260" y="303"/>
      <point x="195" y="238"/>
      <point x="195" y="188" type="qcurve" name="sh07"/>
      <point x="195" y="139"/>
      <point x="260" y="72"/>
      <point x="312" y="72" type="qcurve" name="sv02"/>
      <point x="364" y="72"/>
      <point x="429" y="139"/>
    </contour>
  </outline>
</glyph>
<glyph name="q" format="1">
  <advance width="551"/>
  <unicode hex="0071"/>
  <outline>
    <contour>
      <point x="277" y="-171" type="line" name="sh02"/>
      <point x="353" y="-171" type="line" name="sh01"/>
      <point x="353" y="19" type="line"/>
      <point x="355" y="24"/>
      <point x="360" y="33"/>
      <point x="362" y="38" type="qcurve" name="iv01"/>
      <point x="359" y="34"/>
      <point x="339" y="19" name="fh01"/>
      <point x="323.0" y="11.0" type="qcurve" smooth="yes" name="inserted"/>
      <point x="307" y="3"/>
      <point x="263" y="-9"/>
      <point x="236" y="-9" type="qcurve" name="ab02"/>
      <point x="194" y="-9"/>
      <point x="120" y="22" name="fh02"/>
      <point x="93.0" y="49.0" type="qcurve" smooth="yes" name="inserted"/>
      <point x="66" y="76" name="fh03"/>
      <point x="35" y="148"/>
      <point x="35" y="188" type="qcurve" name="dh01"/>
      <point x="35" y="228"/>
      <point x="66" y="299" name="fh04"/>
      <point x="93.0" y="326.0" type="qcurve" smooth="yes" name="inserted"/>
      <point x="120" y="353" name="fh05"/>
      <point x="194" y="384"/>
      <point x="236" y="384" type="qcurve" name="at01"/>
      <point x="262" y="384"/>
      <point x="307" y="369" name="fh06"/>
      <point x="324.0" y="359.5" type="qcurve" smooth="yes" name="inserted"/>
      <point x="341" y="350"/>
      <point x="361" y="331"/>
      <point x="363" y="328" type="qcurve" name="iv02"/>
      <point x="363" y="339"/>
      <point x="367" y="363"/>
      <point x="367" y="375" type="qcurve" name="sh03"/>
      <point x="516" y="375" type="line" name="at02"/>
      <point x="516" y="296" type="line" name="sh04"/>
      <point x="436" y="296" type="line"/>
      <point x="436" y="-171" type="line" name="dh02"/>
      <point x="499" y="-171" type="line" name="sh05"/>
      <point x="499" y="-250" type="line"/>
      <point x="277" y="-250" type="line" name="ab01"/>
    </contour>
    <contour>
      <point x="119" y="188" type="qcurve" name="sh06"/>
      <point x="119" y="139"/>
      <point x="184" y="72"/>
      <point x="236" y="72" type="qcurve" name="sv01"/>
      <point x="288" y="72"/>
      <point x="353" y="139"/>
      <point x="353" y="188" type="qcurve" name="sh07"/>
      <point x="353" y="238"/>
      <point x="288" y="303"/>
      <point x="236" y="303" type="qcurve" name="sv02"/>
      <point x="184" y="303"/>
      <point x="119" y="238"/>
    </contour>
  </outline>
</glyph>
<glyph name="r" format="1">
  <advance width="370"/>
  <unicode hex="0072"/>
  <outline>
    <contour>
      <point x="35" y="79" type="line" name="sh01"/>
      <point x="111" y="79" type="line" name="dh01"/>
      <point x="111" y="296" type="line"/>
      <point x="45" y="296" type="line" name="sh02"/>
      <point x="45" y="375" type="line" name="at01"/>
      <point x="184" y="375" type="line"/>
      <point x="184" y="366" type="line"/>
      <point x="186" y="342"/>
      <point x="189" y="303"/>
      <point x="191" y="279" type="qcurve" name="sh04"/>
      <point x="203" y="304"/>
      <point x="240" y="343"/>
      <point x="260.5" y="356.5" type="qcurve" smooth="yes" name="inserted"/>
      <point x="281" y="370" name="fh01"/>
      <point x="320" y="384"/>
      <point x="335" y="384" type="qcurve" name="dh02"/>
      <point x="329" y="302" type="line" name="sv01"/>
      <point x="268" y="302" name="fh02"/>
      <point x="194" y="234"/>
      <point x="194" y="182" type="qcurve" name="iv01"/>
      <point x="194" y="79" type="line" name="sh03"/>
      <point x="257" y="79" type="line" name="sh05"/>
      <point x="257" y="0" type="line"/>
      <point x="35" y="0" type="line" name="ab01"/>
    </contour>
  </outline>
</glyph>
<glyph name="v" format="1">
  <advance width="584"/>
  <unicode hex="0076"/>
  <outline>
    <contour>
      <point x="35" y="375" type="line" name="at01"/>
      <point x="257" y="375" type="line"/>
      <point x="257" y="296" type="line" name="sh03"/>
      <point x="205" y="296" type="line" name="sh02"/>
      <point x="231" y="252"/>
      <point x="279" y="164"/>
      <point x="293" y="120" type="qcurve" name="sh04"/>
      <point x="307" y="164"/>
      <point x="354" y="252"/>
      <point x="380" y="296" type="qcurve" name="sh06"/>
      <point x="320" y="296" type="line" name="sh07"/>
      <point x="320" y="375" type="line" name="sv01"/>
      <point x="549" y="375" type="line"/>
      <point x="549" y="296" type="line" name="sh08"/>
      <point x="466" y="296" type="line" name="sh05"/>
      <point x="423" y="215"/>
      <point x="336" y="57" name="fh01"/>
      <point x="293" y="-23" type="qcurve" name="ah01"/>
      <point x="249" y="57" name="fh02"/>
      <point x="163" y="216"/>
      <point x="119" y="296" type="qcurve" name="sh01"/>
      <point x="35" y="296" type="line" name="sh09"/>
    </contour>
  </outline>
</glyph>
<glyph name="w" format="1">
  <advance width="830"/>
  <unicode hex="0077"/>
  <outline>
    <contour>
      <point x="581" y="375" type="line" name="sv02"/>
      <point x="795" y="375" type="line"/>
      <point x="795" y="296" type="line" name="sh03"/>
      <point x="719" y="296" type="line" name="sh02"/>
      <point x="679" y="215"/>
      <point x="598" y="57" name="fh01"/>
      <point x="558" y="-23" type="qcurve" name="sh01"/>
      <point x="422" y="246" type="line" name="ah01"/>
      <point x="286" y="-23" type="line" name="sh04"/>
      <point x="245" y="57" name="fh02"/>
      <point x="165" y="216"/>
      <point x="124" y="296" type="qcurve" name="sh05"/>
      <point x="35" y="296" type="line" name="sh06"/>
      <point x="35" y="375" type="line" name="at01"/>
      <point x="242" y="375" type="line"/>
      <point x="242" y="296" type="line" name="sh08"/>
      <point x="207" y="296" type="line" name="sh07"/>
      <point x="229" y="252"/>
      <point x="271" y="165"/>
      <point x="286" y="120" type="qcurve" name="sh09"/>
      <point x="297" y="154"/>
      <point x="328" y="219"/>
      <point x="344" y="252" type="qcurve"/>
      <point x="349" y="263"/>
      <point x="360" y="285"/>
      <point x="365" y="296" type="qcurve" name="sh10"/>
      <point x="314" y="296" type="line" name="sh11"/>
      <point x="314" y="375" type="line" name="sv01"/>
      <point x="536" y="375" type="line"/>
      <point x="536" y="296" type="line" name="sh13"/>
      <point x="479" y="296" type="line" name="sh12"/>
      <point x="501" y="252"/>
      <point x="543" y="165"/>
      <point x="558" y="120" type="qcurve" name="sh14"/>
      <point x="573" y="165"/>
      <point x="614" y="252"/>
      <point x="637" y="296" type="qcurve" name="sh15"/>
      <point x="581" y="296" type="line" name="sh16"/>
    </contour>
  </outline>
</glyph>
<glyph name="x" format="1">
  <advance width="526"/>
  <unicode hex="0078"/>
  <outline>
    <contour>
      <point x="35" y="375" type="line" name="at01"/>
      <point x="257" y="375" type="line"/>
      <point x="257" y="296" type="line" name="sh03"/>
      <point x="234" y="296" type="line" name="sh02"/>
      <point x="277" y="237" type="line" name="ih05"/>
      <point x="319" y="296" type="line" name="sh05"/>
      <point x="292" y="296" type="line" name="sh06"/>
      <point x="292" y="375" type="line" name="sv01"/>
      <point x="491" y="375" type="line"/>
      <point x="491" y="296" type="line" name="sh07"/>
      <point x="418" y="296" type="line" name="sh08"/>
      <point x="329" y="173" type="line" name="ih04"/>
      <point x="346" y="149"/>
      <point x="381" y="102"/>
      <point x="399" y="79" type="qcurve" name="ih02"/>
      <point x="491" y="79" type="line" name="dh02"/>
      <point x="491" y="0" type="line"/>
      <point x="269" y="0" type="line" name="sv02"/>
      <point x="269" y="79" type="line" name="sh09"/>
      <point x="294" y="79" type="line" name="sh04"/>
      <point x="283" y="93"/>
      <point x="264" y="119"/>
      <point x="254" y="133" type="qcurve" name="ih06"/>
      <point x="244" y="119"/>
      <point x="224" y="93"/>
      <point x="214" y="79" type="qcurve" name="sh01"/>
      <point x="234" y="79" type="line" name="sh10"/>
      <point x="234" y="0" type="line"/>
      <point x="35" y="0" type="line" name="ab01"/>
      <point x="35" y="79" type="line" name="dh01"/>
      <point x="112" y="79" type="line" name="ih01"/>
      <point x="135" y="110"/>
      <point x="180" y="171"/>
      <point x="203" y="202" type="qcurve" name="ih03"/>
      <point x="186" y="225"/>
      <point x="151" y="273"/>
      <point x="134" y="296" type="qcurve" name="sh11"/>
      <point x="35" y="296" type="line" name="sh12"/>
    </contour>
  </outline>
</glyph>
<glyph name="z" format="1">
  <advance width="435"/>
  <unicode hex="007A"/>
  <outline>
    <contour>
      <point x="400" y="138" type="line" name="dh02"/>
      <point x="400" y="0" type="line" name="ab01"/>
      <point x="35" y="0" type="line"/>
      <point x="35" y="81" type="line" name="dh01"/>
      <point x="66" y="109"/>
      <point x="121" y="162"/>
      <point x="147.5" y="188.0" type="qcurve" smooth="yes" name="inserted"/>
      <point x="174" y="214"/>
      <point x="228" y="268"/>
      <point x="260" y="296" type="qcurve" name="sh01"/>
      <point x="47" y="296" type="line" name="sv02"/>
      <point x="47" y="410" type="line" name="ih02"/>
      <point x="121" y="410" type="line" name="sh02"/>
      <point x="121" y="375" type="line" name="at01"/>
      <point x="377" y="375" type="line"/>
      <point x="377" y="294" type="line" name="ih01"/>
      <point x="345" y="266"/>
      <point x="291" y="213"/>
      <point x="264.5" y="187.0" type="qcurve" smooth="yes" name="inserted"/>
      <point x="238" y="161"/>
      <point x="183" y="109"/>
      <point x="152" y="81" type="qcurve" name="sh03"/>
      <point x="326" y="81" type="line" name="sv01"/>
      <point x="326" y="138" type="line" name="sh04"/>
    </contour>
  </outline>
</glyph>
<glyph name="bar" format="1">
  <advance width="271"/>
  <unicode hex="007C"/>
  <outline>
    <contour>
      <point x="91" y="-232" type="line" name="ah01"/>
      <point x="91" y="700" type="line" name="at01"/>
      <point x="175" y="700" type="line"/>
      <point x="175" y="-232" type="line" name="sh01"/>
    </contour>
  </outline>
</glyph>
<glyph name="braceright" format="1">
  <advance width="320"/>
  <unicode hex="007D"/>
  <outline>
    <contour>
      <point x="290" y="337" type="qcurve" name="iv01"/>
      <point x="290" y="256" type="line" name="sh01"/>
      <point x="266" y="255"/>
      <point x="235" y="228"/>
      <point x="226.5" y="208.0" type="qcurve" smooth="yes" name="inserted"/>
      <point x="218" y="188"/>
      <point x="211" y="141"/>
      <point x="211" y="121" type="qcurve" name="ah01"/>
      <point x="211" y="-31" type="line"/>
      <point x="211" y="-78"/>
      <point x="192" y="-126" name="fh01"/>
      <point x="176.0" y="-136.5" type="qcurve" smooth="yes" name="inserted"/>
      <point x="160" y="-147"/>
      <point x="117" y="-149"/>
      <point x="93" y="-149" type="qcurve"/>
      <point x="30" y="-149" type="line" name="av01"/>
      <point x="30" y="-68" type="line" name="sh02"/>
      <point x="74" y="-68" type="line"/>
      <point x="89" y="-68"/>
      <point x="109" y="-60"/>
      <point x="115.0" y="-49.0" type="qcurve" smooth="yes" name="inserted"/>
      <point x="121" y="-38"/>
      <point x="126" y="3"/>
      <point x="126" y="35" type="qcurve"/>
      <point x="126" y="164" type="line" name="sh03"/>
      <point x="126" y="194"/>
      <point x="139" y="239"/>
      <point x="149.0" y="255.0" type="qcurve" smooth="yes" name="inserted"/>
      <point x="159" y="271"/>
      <point x="182" y="292"/>
      <point x="191" y="298" type="qcurve" name="ih01"/>
      <point x="181" y="304"/>
      <point x="158" y="325"/>
      <point x="148.5" y="341.0" type="qcurve" smooth="yes" name="inserted"/>
      <point x="139" y="357"/>
      <point x="126" y="402"/>
      <point x="126" y="433" type="qcurve" name="sh04"/>
      <point x="126" y="562" type="line"/>
      <point x="126" y="594"/>
      <point x="121" y="634"/>
      <point x="115.0" y="645.5" type="qcurve" smooth="yes" name="inserted"/>
      <point x="109" y="657"/>
      <point x="89" y="665"/>
      <point x="74" y="665" type="qcurve"/>
      <point x="30" y="665" type="line" name="sh05"/>
      <point x="30" y="746" type="line" name="at01"/>
      <point x="93" y="746" type="line"/>
      <point x="116" y="746"/>
      <point x="159" y="744"/>
      <point x="175.5" y="733.5" type="qcurve" smooth="yes" name="inserted"/>
      <point x="192" y="723" name="fh02"/>
      <point x="211" y="675"/>
      <point x="211" y="628" type="qcurve"/>
      <point x="211" y="472" type="line" name="sh06"/>
      <point x="211" y="452"/>
      <point x="218" y="405"/>
      <point x="226.5" y="385.0" type="qcurve" smooth="yes" name="inserted"/>
      <point x="235" y="365"/>
      <point x="266" y="338"/>
    </contour>
  </outline>
</glyph>
<glyph name="asciitilde" format="1">
  <advance width="489"/>
  <unicode hex="007E"/>
  <outline>
    <contour>
      <point x="271" y="481" type="qcurve"/>
      <point x="256" y="497"/>
      <point x="233" y="507"/>
      <point x="219" y="507" type="qcurve" name="sv02"/>
      <point x="205" y="507"/>
      <point x="169" y="489"/>
      <point x="166" y="461" type="qcurve" name="sh01"/>
      <point x="121" y="464" type="line" name="ah01"/>
      <point x="122" y="484"/>
      <point x="140" y="517"/>
      <point x="153.0" y="528.5" type="qcurve" smooth="yes" name="inserted"/>
      <point x="166" y="540" name="fh01"/>
      <point x="197" y="552"/>
      <point x="212" y="552" type="qcurve" name="sv01"/>
      <point x="235" y="552"/>
      <point x="272" y="534"/>
      <point x="289" y="519" type="qcurve"/>
      <point x="304" y="503"/>
      <point x="327" y="493"/>
      <point x="341" y="493" type="qcurve" name="sv03"/>
      <point x="348" y="493"/>
      <point x="365" y="497"/>
      <point x="373.0" y="502.0" type="qcurve" smooth="yes" name="inserted"/>
      <point x="381" y="507"/>
      <point x="392" y="525"/>
      <point x="394" y="539" type="qcurve" name="sh03"/>
      <point x="439" y="536" type="line" name="sh02"/>
      <point x="438" y="516"/>
      <point x="420" y="483" name="fh02"/>
      <point x="407.0" y="472.0" type="qcurve" smooth="yes" name="inserted"/>
      <point x="394" y="461" name="fh03"/>
      <point x="363" y="449"/>
      <point x="348" y="449" type="qcurve" name="av01"/>
      <point x="325" y="449"/>
      <point x="288" y="467"/>
    </contour>
  </outline>
</glyph>
<glyph name="section" format="1">
  <advance width="500"/>
  <unicode hex="00A7"/>
  <outline>
    <contour>
      <point x="194" y="360" type="qcurve" name="sh01"/>
      <point x="194" y="333"/>
      <point x="231" y="296"/>
      <point x="258" y="296" type="qcurve" name="sv01"/>
      <point x="284" y="296"/>
      <point x="322" y="333"/>
      <point x="322" y="360" type="qcurve" name="sh02"/>
      <point x="322" y="386"/>
      <point x="285" y="424"/>
      <point x="258" y="424" type="qcurve" name="sv02"/>
      <point x="232" y="424"/>
      <point x="194" y="387"/>
    </contour>
    <contour>
      <point x="217" y="148" type="qcurve"/>
      <point x="189" y="192"/>
      <point x="158" y="244" name="fh01"/>
      <point x="150.0" y="257.5" type="qcurve" smooth="yes" name="inserted"/>
      <point x="142" y="271"/>
      <point x="138" y="280"/>
      <point x="138" y="282" type="qcurve"/>
      <point x="127.5" y="299.0" name="inserted"/>
      <point x="117.0" y="337.0"/>
      <point x="117" y="358" type="qcurve" name="dh01"/>
      <point x="117" y="383"/>
      <point x="133" y="432"/>
      <point x="148.5" y="451.5" type="qcurve" smooth="yes" name="inserted"/>
      <point x="164" y="471" name="fv01"/>
      <point x="210" y="497"/>
      <point x="240" y="500" type="qcurve" name="ih02"/>
      <point x="226" y="521"/>
      <point x="202" y="564"/>
      <point x="192.5" y="584.5" type="qcurve" smooth="yes" name="inserted"/>
      <point x="183" y="605"/>
      <point x="172" y="640"/>
      <point x="172" y="652" type="qcurve" name="ih01"/>
      <point x="172" y="673"/>
      <point x="196" y="704"/>
      <point x="213.5" y="716.5" type="qcurve" smooth="yes" name="inserted"/>
      <point x="231" y="729"/>
      <point x="273" y="751"/>
      <point x="291" y="762" type="qcurve" name="av01"/>
      <point x="302" y="745"/>
      <point x="322" y="709"/>
      <point x="333" y="692" type="qcurve" name="sh03"/>
      <point x="294" y="670" type="line" name="fh02"/>
      <point x="281" y="662"/>
      <point x="268" y="646"/>
      <point x="268" y="635" type="qcurve" name="sh04"/>
      <point x="269" y="625"/>
      <point x="279" y="599"/>
      <point x="290" y="580" type="qcurve"/>
      <point x="380" y="431" type="line"/>
      <point x="390.0" y="414.5" name="inserted"/>
      <point x="400.0" y="377.5"/>
      <point x="400" y="357" type="qcurve" name="dh02"/>
      <point x="400" y="331"/>
      <point x="383" y="284"/>
      <point x="367.0" y="264.5" type="qcurve" smooth="yes" name="inserted"/>
      <point x="351" y="245"/>
      <point x="305" y="218"/>
      <point x="275" y="214" type="qcurve" name="ih04"/>
      <point x="304" y="169"/>
      <point x="346" y="85"/>
      <point x="346" y="60" type="qcurve" name="ih03"/>
      <point x="346" y="39"/>
      <point x="323" y="7"/>
      <point x="305.0" y="-5.5" type="qcurve" smooth="yes" name="inserted"/>
      <point x="287" y="-18" name="fh03"/>
      <point x="246" y="-39"/>
      <point x="228" y="-50" type="qcurve" name="av02"/>
      <point x="217" y="-33"/>
      <point x="197" y="3"/>
      <point x="186" y="20" type="qcurve" name="sh05"/>
      <point x="225" y="43" type="line" name="fh04"/>
      <point x="236" y="50"/>
      <point x="249" y="64"/>
      <point x="249" y="75" type="qcurve" name="sh06"/>
      <point x="249.0" y="85.5" name="inserted"/>
      <point x="233.0" y="122.0"/>
    </contour>
  </outline>
</glyph>
<glyph name="copyright" format="1">
  <advance width="793"/>
  <unicode hex="00A9"/>
  <outline>
    <contour>
      <point x="400" y="148" type="qcurve" name="sv01"/>
      <point x="447" y="148"/>
      <point x="529" y="182" name="fh01"/>
      <point x="559.0" y="212.0" type="qcurve" smooth="yes" name="inserted"/>
      <point x="589" y="242" name="fh02"/>
      <point x="623" y="324"/>
      <point x="623" y="372" type="qcurve" name="sh02"/>
      <point x="623" y="421"/>
      <point x="589" y="503" name="fh03"/>
      <point x="559.0" y="533.0" type="qcurve" smooth="yes" name="inserted"/>
      <point x="529" y="563" name="fh04"/>
      <point x="447" y="597"/>
      <point x="400" y="597" type="qcurve" name="sv03"/>
      <point x="353" y="597"/>
      <point x="271" y="563" name="fh05"/>
      <point x="241.0" y="533.0" type="qcurve" smooth="yes" name="inserted"/>
      <point x="211" y="503" name="fh06"/>
      <point x="177" y="421"/>
      <point x="177" y="372" type="qcurve" name="sh03"/>
      <point x="177" y="324"/>
      <point x="211" y="242" name="fh07"/>
      <point x="241.0" y="212.0" type="qcurve" smooth="yes" name="inserted"/>
      <point x="271" y="182" name="fh08"/>
      <point x="353" y="148"/>
    </contour>
    <contour>
      <point x="400" y="111" type="qcurve" name="av01"/>
      <point x="346" y="111"/>
      <point x="250" y="151" name="fh09"/>
      <point x="214.5" y="186.0" type="qcurve" smooth="yes" name="inserted"/>
      <point x="179" y="221" name="fh10"/>
      <point x="137" y="316"/>
      <point x="137" y="372" type="qcurve" name="ah01"/>
      <point x="137" y="429"/>
      <point x="179" y="525" name="fh11"/>
      <point x="214.5" y="560.0" type="qcurve" smooth="yes" name="inserted"/>
      <point x="250" y="595" name="fh12"/>
      <point x="346" y="634"/>
      <point x="400" y="634" type="qcurve" name="sv02"/>
      <point x="454" y="634"/>
      <point x="550" y="595" name="fh13"/>
      <point x="585.5" y="560.0" type="qcurve" smooth="yes" name="inserted"/>
      <point x="621" y="525" name="fh14"/>
      <point x="663" y="429"/>
      <point x="663" y="372" type="qcurve" name="sh01"/>
      <point x="663" y="316"/>
      <point x="621" y="221" name="fh15"/>
      <point x="585.5" y="186.0" type="qcurve" smooth="yes" name="inserted"/>
      <point x="550" y="151" name="fh16"/>
      <point x="454" y="111"/>
    </contour>
    <contour>
      <point x="465" y="464" type="line" name="sh05"/>
      <point x="465" y="492" type="line"/>
      <point x="453.5" y="497.0" name="inserted"/>
      <point x="430.0" y="502.0"/>
      <point x="418" y="502" type="qcurve" name="sv05"/>
      <point x="392" y="502"/>
      <point x="347" y="482"/>
      <point x="330.5" y="464.5" type="qcurve" smooth="yes" name="inserted"/>
      <point x="314" y="447"/>
      <point x="294" y="401"/>
      <point x="294" y="375" type="qcurve" name="sh06"/>
      <point x="294" y="349"/>
      <point x="314" y="303"/>
      <point x="330.5" y="286.0" type="qcurve" smooth="yes" name="inserted"/>
      <point x="347" y="269"/>
      <point x="392" y="249"/>
      <point x="418" y="249" type="qcurve" name="sv06"/>
      <point x="435.0" y="249.0" name="inserted"/>
      <point x="466.0" y="257.5"/>
      <point x="480" y="266" type="qcurve" name="sv07"/>
      <point x="500" y="236" type="line" name="sh07"/>
      <point x="482" y="225"/>
      <point x="441" y="213"/>
      <point x="418" y="213" type="qcurve" name="iv01"/>
      <point x="385" y="213"/>
      <point x="326" y="239" name="fh17"/>
      <point x="304.0" y="261.0" type="qcurve" smooth="yes" name="inserted"/>
      <point x="282" y="283" name="fh18"/>
      <point x="257" y="342"/>
      <point x="257" y="375" type="qcurve" name="ih01"/>
      <point x="257" y="409"/>
      <point x="282" y="468" name="fh19"/>
      <point x="304.0" y="490.0" type="qcurve" smooth="yes" name="inserted"/>
      <point x="326" y="512" name="fh20"/>
      <point x="385" y="537"/>
      <point x="418" y="537" type="qcurve" name="sv04"/>
      <point x="440.0" y="537.0" name="inserted"/>
      <point x="481.5" y="526.0"/>
      <point x="501" y="515" type="qcurve"/>
      <point x="501" y="464" type="line" name="sh04"/>
    </contour>
  </outline>
</glyph>
<glyph name="logicalnot" format="1">
  <advance width="559"/>
  <unicode hex="00AC"/>
  <outline>
    <contour>
      <point x="376" y="148" type="line" name="sh01"/>
      <point x="376" y="188" type="line"/>
      <point x="100" y="188" type="line" name="sh02"/>
      <point x="100" y="248" type="line" name="av01"/>
      <point x="460" y="248" type="line"/>
      <point x="460" y="148" type="line" name="ah01"/>
    </contour>
  </outline>
</glyph>
<glyph name="macron" format="1">
  <advance width="399"/>
  <unicode hex="00AF"/>
  <outline>
    <contour>
      <point x="85" y="478" type="line" name="ah01"/>
      <point x="85" y="531" type="line" name="sv01"/>
      <point x="315" y="531" type="line"/>
      <point x="315" y="478" type="line" name="sh01"/>
    </contour>
  </outline>
</glyph>
<glyph name="degree" format="1">
  <advance width="282"/>
  <unicode hex="00B0"/>
  <outline>
    <contour>
      <point x="138" y="511" type="qcurve" name="sv02"/>
      <point x="158" y="511"/>
      <point x="187" y="539"/>
      <point x="187" y="559" type="qcurve" name="sh02"/>
      <point x="187" y="579"/>
      <point x="158" y="608"/>
      <point x="138" y="608" type="qcurve" name="sv03"/>
      <point x="118" y="608"/>
      <point x="90" y="579"/>
      <point x="90" y="559" type="qcurve" name="sh03"/>
      <point x="90" y="539"/>
      <point x="118" y="511"/>
    </contour>
    <contour>
      <point x="36" y="560" type="qcurve" name="ah01"/>
      <point x="36" y="581"/>
      <point x="52" y="617" name="fh01"/>
      <point x="65.5" y="630.5" type="qcurve" smooth="yes" name="inserted"/>
      <point x="79" y="644" name="fh02"/>
      <point x="117" y="660"/>
      <point x="138" y="660" type="qcurve" name="at01"/>
      <point x="159" y="660"/>
      <point x="195" y="644" name="fh03"/>
      <point x="208.5" y="630.5" type="qcurve" smooth="yes" name="inserted"/>
      <point x="222" y="617" name="fh04"/>
      <point x="238" y="581"/>
      <point x="238" y="560" type="qcurve" name="sh01"/>
      <point x="238" y="539"/>
      <point x="222" y="502" name="fh05"/>
      <point x="208.5" y="488.5" type="qcurve" smooth="yes" name="inserted"/>
      <point x="195" y="475" name="fh06"/>
      <point x="159" y="460"/>
      <point x="138" y="460" type="qcurve" name="sv01"/>
      <point x="117" y="460"/>
      <point x="79" y="475" name="fh07"/>
      <point x="65.5" y="488.5" type="qcurve" smooth="yes" name="inserted"/>
      <point x="52" y="502" name="fh08"/>
      <point x="36" y="539"/>
    </contour>
  </outline>
</glyph>
<glyph name="plusminus" format="1">
  <advance width="524"/>
  <unicode hex="00B1"/>
  <outline>
    <contour>
      <point x="224" y="211" type="line" name="sv01"/>
      <point x="224" y="350" type="line" name="ah01"/>
      <point x="86" y="350" type="line" name="sh01"/>
      <point x="86" y="431" type="line" name="sv02"/>
      <point x="224" y="431" type="line" name="sh02"/>
      <point x="224" y="571" type="line" name="sv03"/>
      <point x="308" y="571" type="line"/>
      <point x="308" y="431" type="line" name="sh04"/>
      <point x="446" y="431" type="line"/>
      <point x="446" y="350" type="line" name="sh05"/>
      <point x="308" y="350" type="line" name="sh03"/>
      <point x="308" y="211" type="line"/>
    </contour>
    <contour>
      <point x="446" y="100" type="line"/>
      <point x="86" y="100" type="line" name="av01"/>
      <point x="86" y="181" type="line" name="sh06"/>
      <point x="446" y="181" type="line" name="sh07"/>
    </contour>
  </outline>
</glyph>
<glyph name="twosuperior" format="1">
  <advance width="398"/>
  <unicode hex="00B2"/>
  <outline>
    <contour>
      <point x="203" y="415" type="qcurve" name="sh03"/>
      <point x="284" y="415" type="line" name="sv02"/>
      <point x="284" y="461" type="line" name="sh05"/>
      <point x="323" y="461" type="line" name="sh04"/>
      <point x="323" y="375" type="line" name="sv01"/>
      <point x="104" y="375" type="line" name="sh02"/>
      <point x="135" y="406"/>
      <point x="192" y="463" name="fh01"/>
      <point x="214.0" y="490.0" type="qcurve" smooth="yes" name="inserted"/>
      <point x="236" y="517" name="fh02"/>
      <point x="263" y="568"/>
      <point x="263" y="591" type="qcurve" name="sh06"/>
      <point x="263" y="610"/>
      <point x="251" y="635" name="fh03"/>
      <point x="242.0" y="643.5" type="qcurve" smooth="yes" name="inserted"/>
      <point x="233" y="652"/>
      <point x="212" y="660"/>
      <point x="203" y="660" type="qcurve" name="sv03"/>
      <point x="184" y="660"/>
      <point x="160" y="647"/>
      <point x="153.5" y="637.5" type="qcurve" smooth="yes" name="inserted"/>
      <point x="147" y="628" name="fh04"/>
      <point x="141" y="608"/>
      <point x="141" y="600" type="qcurve" name="sh07"/>
      <point x="141" y="583"/>
      <point x="151" y="558"/>
      <point x="160" y="548" type="qcurve" name="sh08"/>
      <point x="136" y="523" type="line" name="sv04"/>
      <point x="127" y="529"/>
      <point x="114" y="547"/>
      <point x="109.5" y="557.5" type="qcurve" smooth="yes" name="inserted"/>
      <point x="105" y="568"/>
      <point x="100" y="590"/>
      <point x="100" y="600" type="qcurve" name="sh01"/>
      <point x="100" y="619"/>
      <point x="113" y="656" name="fh05"/>
      <point x="126.0" y="670.0" type="qcurve" smooth="yes" name="inserted"/>
      <point x="139" y="684"/>
      <point x="178" y="700"/>
      <point x="203" y="700" type="qcurve" name="at01"/>
      <point x="226" y="700"/>
      <point x="263" y="683"/>
      <point x="276.5" y="669.0" type="qcurve" smooth="yes" name="inserted"/>
      <point x="290" y="655" name="fh06"/>
      <point x="304" y="618"/>
      <point x="304" y="597" type="qcurve" name="ah01"/>
      <point x="304" y="573"/>
      <point x="287" y="527"/>
      <point x="273.0" y="504.0" type="qcurve" smooth="yes" name="inserted"/>
      <point x="259" y="481"/>
      <point x="223" y="437"/>
    </contour>
  </outline>
</glyph>
<glyph name="threesuperior" format="1">
  <advance width="419"/>
  <unicode hex="00B3"/>
  <outline>
    <contour>
      <point x="124" y="541" type="qcurve" name="ih01"/>
      <point x="193" y="660" type="line" name="sh02"/>
      <point x="138" y="660" type="line" name="sv01"/>
      <point x="138" y="637" type="line" name="sh03"/>
      <point x="99" y="637" type="line" name="ih03"/>
      <point x="99" y="700" type="line" name="at01"/>
      <point x="261" y="700" type="line" name="ih02"/>
      <point x="191" y="583" type="line" name="sh04"/>
      <point x="207" y="577"/>
      <point x="234" y="558"/>
      <point x="243.5" y="545.0" type="qcurve" smooth="yes" name="inserted"/>
      <point x="253" y="532" name="fh01"/>
      <point x="264" y="501" name="fh02"/>
      <point x="264" y="483" type="qcurve" name="ah01"/>
      <point x="264" y="461"/>
      <point x="247" y="422"/>
      <point x="232.0" y="407.5" type="qcurve" smooth="yes" name="inserted"/>
      <point x="217" y="393"/>
      <point x="178" y="376"/>
      <point x="156" y="376" type="qcurve" name="sv02"/>
      <point x="132" y="376"/>
      <point x="92" y="395"/>
      <point x="77" y="411" type="qcurve" name="sh01"/>
      <point x="107" y="439" type="line" name="sv03"/>
      <point x="116" y="428"/>
      <point x="141" y="416"/>
      <point x="156" y="416" type="qcurve" name="sv04"/>
      <point x="170" y="416"/>
      <point x="194" y="427" name="fh03"/>
      <point x="203.0" y="436.0" type="qcurve" smooth="yes" name="inserted"/>
      <point x="212" y="445"/>
      <point x="223" y="469"/>
      <point x="223" y="483" type="qcurve" name="sh05"/>
      <point x="223" y="497"/>
      <point x="212" y="521"/>
      <point x="203.0" y="530.0" type="qcurve" smooth="yes" name="inserted"/>
      <point x="194" y="539" name="fh04"/>
      <point x="170" y="549"/>
      <point x="156" y="549" type="qcurve" name="iv01"/>
      <point x="147.0" y="549.0" name="inserted"/>
      <point x="131.0" y="545.0"/>
    </contour>
  </outline>
</glyph>
<glyph name="acute" format="1">
  <advance width="274"/>
  <unicode hex="00B4"/>
  <outline>
    <contour>
      <point x="100" y="479" type="line" name="ah01"/>
      <point x="123" y="512"/>
      <point x="167" y="579"/>
      <point x="190" y="612" type="qcurve" name="sv01"/>
      <point x="274" y="612" type="line" name="sh01"/>
      <point x="245" y="579"/>
      <point x="188" y="512"/>
      <point x="159" y="479" type="qcurve" name="av01"/>
    </contour>
  </outline>
</glyph>
<glyph name="mu" format="1">
  <advance width="545"/>
  <unicode hex="00B5"/>
  <outline>
    <contour>
      <point x="305" y="375" type="line" name="sv01"/>
      <point x="454" y="375" type="line" name="dh02"/>
      <point x="454" y="70" type="line"/>
      <point x="516" y="70" type="line" name="sh01"/>
      <point x="516" y="0" type="line" name="ab01"/>
      <point x="371" y="0" type="line" name="sh03"/>
      <point x="371" y="51" type="line"/>
      <point x="374" y="96" type="line" name="iv01"/>
      <point x="354" y="48"/>
      <point x="265" y="-9"/>
      <point x="211" y="-9" type="qcurve" name="ab02"/>
      <point x="198.5" y="-9.0" name="inserted"/>
      <point x="175.5" y="-6.0"/>
      <point x="165" y="-3" type="qcurve" name="sh05"/>
      <point x="165" y="-201" type="line" name="av01"/>
      <point x="82" y="-201" type="line"/>
      <point x="82" y="296" type="line" name="dh01"/>
      <point x="16" y="296" type="line" name="sh06"/>
      <point x="16" y="375" type="line" name="at01"/>
      <point x="165" y="375" type="line" name="sh04"/>
      <point x="165" y="141" type="line"/>
      <point x="167" y="114"/>
      <point x="202" y="75"/>
      <point x="240" y="73" type="qcurve" name="sv02"/>
      <point x="266" y="73"/>
      <point x="313" y="91"/>
      <point x="331.0" y="107.0" type="qcurve" smooth="yes" name="inserted"/>
      <point x="349" y="123"/>
      <point x="371" y="167"/>
      <point x="371" y="193" type="qcurve"/>
      <point x="371" y="296" type="line" name="sh02"/>
      <point x="305" y="296" type="line" name="sh07"/>
    </contour>
  </outline>
</glyph>
<glyph name="cedilla" format="1">
  <advance width="452"/>
  <unicode hex="00B8"/>
  <outline>
    <contour>
      <point x="184" y="0" type="line" name="sh01"/>
      <point x="235" y="0" type="line" name="sh02"/>
      <point x="235" y="-7" type="line"/>
      <point x="235" y="-21"/>
      <point x="243" y="-38"/>
      <point x="249.5" y="-43.5" type="qcurve" smooth="yes" name="inserted"/>
      <point x="256" y="-49"/>
      <point x="271" y="-56"/>
      <point x="277" y="-61" type="qcurve"/>
      <point x="298" y="-77"/>
      <point x="315" y="-117"/>
      <point x="315" y="-142" type="qcurve" name="ah01"/>
      <point x="315" y="-163"/>
      <point x="302" y="-202"/>
      <point x="288.5" y="-217.0" type="qcurve" smooth="yes" name="inserted"/>
      <point x="275" y="-232" name="fh01"/>
      <point x="236" y="-250"/>
      <point x="210" y="-250" type="qcurve" name="ab01"/>
      <point x="176" y="-250"/>
      <point x="119" y="-213" name="fh02"/>
      <point x="106" y="-175" type="qcurve" name="sh03"/>
      <point x="117" y="-169"/>
      <point x="141" y="-157"/>
      <point x="152" y="-151" type="qcurve" name="sv01"/>
      <point x="157" y="-167" name="sh04"/>
      <point x="183" y="-188"/>
      <point x="203" y="-188" type="qcurve" name="sv02"/>
      <point x="227" y="-188"/>
      <point x="253" y="-156"/>
      <point x="253" y="-132" type="qcurve" name="sh05"/>
      <point x="253" y="-112"/>
      <point x="231" y="-89" name="fh03"/>
      <point x="218.5" y="-80.0" type="qcurve" smooth="yes" name="inserted"/>
      <point x="206" y="-71" name="fh04"/>
      <point x="184" y="-51"/>
      <point x="184" y="-34" type="qcurve"/>
    </contour>
  </outline>
</glyph>
<glyph name="onesuperior" format="1">
  <advance width="273"/>
  <unicode hex="00B9"/>
  <outline>
    <contour>
      <point x="53" y="437" type="line" name="sh01"/>
      <point x="89" y="437" type="line" name="ah01"/>
      <point x="89" y="663" type="line"/>
      <point x="58" y="663" type="line" name="sh02"/>
      <point x="58" y="700" type="line" name="at01"/>
      <point x="128" y="700" type="line"/>
      <point x="128" y="437" type="line" name="sh03"/>
      <point x="164" y="437" type="line" name="sh04"/>
      <point x="164" y="401" type="line"/>
      <point x="53" y="401" type="line" name="sv01"/>
    </contour>
  </outline>
</glyph>
<glyph name="ordmasculine" format="1">
  <advance width="469"/>
  <unicode hex="00BA"/>
  <outline>
    <contour>
      <point x="90" y="442" type="qcurve" name="ah01"/>
      <point x="90" y="470"/>
      <point x="113" y="522" name="fh01"/>
      <point x="132.5" y="541.5" type="qcurve" smooth="yes" name="inserted"/>
      <point x="152" y="561" name="fh02"/>
      <point x="204" y="583"/>
      <point x="234" y="583" type="qcurve" name="av01"/>
      <point x="265" y="583"/>
      <point x="318" y="561" name="fv01"/>
      <point x="337.5" y="541.5" type="qcurve" smooth="yes" name="inserted"/>
      <point x="357" y="522" name="fh03"/>
      <point x="379" y="470"/>
      <point x="379" y="442" type="qcurve" name="sh01"/>
      <point x="379" y="412"/>
      <point x="357" y="361" name="fv02"/>
      <point x="337.5" y="341.5" type="qcurve" smooth="yes" name="inserted"/>
      <point x="318" y="322" name="fv03"/>
      <point x="265" y="300"/>
      <point x="234" y="300" type="qcurve" name="sv01"/>
      <point x="204" y="300"/>
      <point x="152" y="322" name="fv04"/>
      <point x="132.5" y="341.5" type="qcurve" smooth="yes" name="inserted"/>
      <point x="113" y="361" name="fh04"/>
      <point x="90" y="412"/>
    </contour>
    <contour>
      <point x="150" y="441" type="qcurve" name="sh02"/>
      <point x="150" y="424"/>
      <point x="163" y="393"/>
      <point x="174.0" y="382.0" type="qcurve" smooth="yes" name="inserted"/>
      <point x="185" y="371"/>
      <point x="216" y="358"/>
      <point x="233" y="358" type="qcurve" name="sv02"/>
      <point x="250" y="358"/>
      <point x="281" y="371"/>
      <point x="292.5" y="382.0" type="qcurve" smooth="yes" name="inserted"/>
      <point x="304" y="393"/>
      <point x="317" y="424"/>
      <point x="317" y="441" type="qcurve" name="sh03"/>
      <point x="317" y="458"/>
      <point x="304" y="488"/>
      <point x="292.5" y="500.0" type="qcurve" smooth="yes" name="inserted"/>
      <point x="281" y="512"/>
      <point x="250" y="525"/>
      <point x="233" y="525" type="qcurve" name="sv03"/>
      <point x="216" y="525"/>
      <point x="185" y="512"/>
      <point x="174.0" y="500.0" type="qcurve" smooth="yes" name="inserted"/>
      <point x="163" y="488"/>
      <point x="150" y="458"/>
    </contour>
  </outline>
</glyph>
<glyph name="onequarter" format="1">
  <advance width="968"/>
  <unicode hex="00BC"/>
  <outline>
    <contour>
      <point x="256" y="-19" type="line" name="ih01"/>
      <point x="326" y="171"/>
      <point x="464" y="546"/>
      <point x="534" y="736" type="qcurve" name="sh04"/>
      <point x="618" y="736" type="line" name="sh03"/>
      <point x="548" y="546"/>
      <point x="410" y="171"/>
      <point x="340" y="-19" type="qcurve" name="sh05"/>
    </contour>
    <contour>
      <point x="655" y="59" type="line" name="sh06"/>
      <point x="711" y="59" type="line" name="ah02"/>
      <point x="711" y="136" type="line" name="sv02"/>
      <point x="501" y="136" type="line" name="sh07"/>
      <point x="773" y="490" type="line" name="sv01"/>
      <point x="773" y="197" type="line" name="sh08"/>
      <point x="845" y="197" type="line" name="sh09"/>
      <point x="845" y="136" type="line"/>
      <point x="773" y="136" type="line" name="iv01"/>
      <point x="773" y="59" type="line" name="sh02"/>
      <point x="835" y="59" type="line" name="sh10"/>
      <point x="835" y="0" type="line" name="ab01"/>
      <point x="655" y="0" type="line"/>
    </contour>
    <contour>
      <point x="711" y="308" type="line" name="sv03"/>
      <point x="626" y="197" type="line" name="sh11"/>
      <point x="711" y="197" type="line" name="sh12"/>
    </contour>
    <contour>
      <point x="113" y="290" type="line" name="sh13"/>
      <point x="169" y="290" type="line" name="sh01"/>
      <point x="169" y="638" type="line"/>
      <point x="121" y="638" type="line" name="sh14"/>
      <point x="121" y="695" type="line" name="at01"/>
      <point x="229" y="695" type="line"/>
      <point x="229" y="290" type="line" name="ah01"/>
      <point x="285" y="290" type="line" name="sh15"/>
      <point x="285" y="234" type="line"/>
      <point x="113" y="234" type="line" name="sv04"/>
    </contour>
  </outline>
</glyph>
<glyph name="multiply" format="1">
  <advance width="500"/>
  <unicode hex="00D7"/>
  <outline>
    <contour>
      <point x="364" y="0" type="line" name="sv01"/>
      <point x="339" y="25"/>
      <point x="290" y="73"/>
      <point x="265" y="98" type="qcurve" name="iv01"/>
      <point x="168" y="1" type="line" name="ab01"/>
      <point x="154" y="15"/>
      <point x="124" y="44"/>
      <point x="110" y="58" type="qcurve" name="ah01"/>
      <point x="208" y="156" type="line" name="ih01"/>
      <point x="109" y="255" type="line" name="sh02"/>
      <point x="168" y="314" type="line" name="sv02"/>
      <point x="267" y="215" type="line" name="iv02"/>
      <point x="365" y="313" type="line" name="sv03"/>
      <point x="379" y="299"/>
      <point x="408" y="269"/>
      <point x="422" y="255" type="qcurve" name="sh03"/>
      <point x="325" y="158" type="line" name="ih02"/>
      <point x="350" y="133"/>
      <point x="398" y="84"/>
      <point x="423" y="59" type="qcurve" name="sh01"/>
    </contour>
  </outline>
</glyph>
<glyph name="ae" format="1">
  <advance width="613"/>
  <unicode hex="00E6"/>
  <outline>
    <contour>
      <point x="352" y="242" type="qcurve"/>
      <point x="352" y="220" type="line" name="sh02"/>
      <point x="382" y="231"/>
      <point x="442" y="253"/>
      <point x="472" y="264" type="qcurve" name="sh03"/>
      <point x="458" y="281"/>
      <point x="423" y="302"/>
      <point x="402" y="302" type="qcurve" name="sv01"/>
      <point x="387.5" y="302.0" name="inserted"/>
      <point x="361.0" y="296.5"/>
      <point x="349" y="291" type="qcurve"/>
      <point x="350.5" y="280.5" name="inserted"/>
      <point x="352.0" y="256.0"/>
    </contour>
    <contour>
      <point x="268" y="134" type="line" name="ih01"/>
      <point x="212" y="134" type="line" name="sv02"/>
      <point x="198" y="134"/>
      <point x="165" y="132"/>
      <point x="151.0" y="129.0" type="qcurve" smooth="yes" name="inserted"/>
      <point x="137" y="126"/>
      <point x="119" y="115"/>
      <point x="119" y="106" type="qcurve" name="sh04"/>
      <point x="119" y="85"/>
      <point x="167" y="71"/>
      <point x="194" y="71" type="qcurve" name="sv03"/>
      <point x="205" y="71"/>
      <point x="231" y="72"/>
      <point x="242.0" y="75.0" type="qcurve" smooth="yes" name="inserted"/>
      <point x="253" y="78"/>
      <point x="268" y="93"/>
      <point x="268" y="108" type="qcurve"/>
    </contour>
    <contour>
      <point x="94" y="274" type="qcurve" name="sv04"/>
      <point x="83" y="288"/>
      <point x="61" y="313"/>
      <point x="50" y="327" type="qcurve" name="ih02"/>
      <point x="61" y="338"/>
      <point x="96" y="359"/>
      <point x="116.0" y="366.5" type="qcurve" smooth="yes" name="inserted"/>
      <point x="136" y="374"/>
      <point x="178" y="383"/>
      <point x="197" y="383" type="qcurve" name="at01"/>
      <point x="236.0" y="383.0" name="inserted"/>
      <point x="292.0" y="372.0"/>
      <point x="309" y="361" type="qcurve" name="ih03"/>
      <point x="331.0" y="372.0" name="inserted"/>
      <point x="377.5" y="383.0"/>
      <point x="402" y="383" type="qcurve" name="at02"/>
      <point x="433" y="383"/>
      <point x="490" y="358"/>
      <point x="512.5" y="336.0" type="qcurve" smooth="yes" name="inserted"/>
      <point x="535" y="314"/>
      <point x="569" y="253"/>
      <point x="578" y="217" type="qcurve" name="dh02"/>
      <point x="521" y="196"/>
      <point x="409" y="154"/>
      <point x="352" y="133" type="qcurve" name="sh01"/>
      <point x="352" y="129" type="line"/>
      <point x="352.0" y="117.0" name="inserted"/>
      <point x="349.5" y="93.5"/>
      <point x="347" y="82" type="qcurve"/>
      <point x="359" y="76"/>
      <point x="387" y="71"/>
      <point x="402" y="71" type="qcurve" name="sv05"/>
      <point x="425.0" y="71.0" name="inserted"/>
      <point x="463.0" y="87.0"/>
      <point x="478" y="103" type="qcurve" name="sv06"/>
      <point x="529" y="43" type="line" name="ih04"/>
      <point x="504" y="18"/>
      <point x="440" y="-10"/>
      <point x="402" y="-10" type="qcurve" name="ab02"/>
      <point x="375.5" y="-10.0" name="inserted"/>
      <point x="326.5" y="2.5"/>
      <point x="304" y="15" type="qcurve" name="ih05"/>
      <point x="285.5" y="2.5" name="inserted"/>
      <point x="231.0" y="-10.0"/>
      <point x="195" y="-10" type="qcurve" name="ab01"/>
      <point x="159" y="-10"/>
      <point x="100" y="1"/>
      <point x="79.0" y="15.0" type="qcurve" smooth="yes" name="inserted"/>
      <point x="58" y="29" name="fh01"/>
      <point x="35" y="75"/>
      <point x="35" y="110" type="qcurve" name="dh01"/>
      <point x="35" y="141"/>
      <point x="59" y="184" name="fh02"/>
      <point x="79.5" y="196.5" type="qcurve" smooth="yes" name="inserted"/>
      <point x="100" y="209"/>
      <point x="152" y="220"/>
      <point x="179" y="220" type="qcurve" name="iv01"/>
      <point x="268" y="220" type="line" name="sh05"/>
      <point x="268" y="244" type="line"/>
      <point x="268" y="259"/>
      <point x="263" y="280"/>
      <point x="255.5" y="287.5" type="qcurve" smooth="yes" name="inserted"/>
      <point x="248" y="295"/>
      <point x="219" y="302"/>
      <point x="196" y="302" type="qcurve" name="sv07"/>
      <point x="183" y="302"/>
      <point x="154" y="297"/>
      <point x="140.0" y="293.0" type="qcurve" smooth="yes" name="inserted"/>
      <point x="126" y="289"/>
      <point x="101" y="279"/>
    </contour>
  </outline>
</glyph>
<glyph name="ccedilla" format="1">
  <advance width="398"/>
  <unicode hex="00E7"/>
  <outline>
    <contour>
      <point x="311" y="97" type="qcurve" name="sv01"/>
      <point x="361" y="34" type="line" name="sh01"/>
      <point x="335" y="14"/>
      <point x="271" y="-9"/>
      <point x="235" y="-9" type="qcurve" name="sh02"/>
      <point x="235" y="-24"/>
      <point x="243" y="-40"/>
      <point x="249.0" y="-45.0" type="qcurve" smooth="yes" name="inserted"/>
      <point x="255" y="-50"/>
      <point x="270" y="-56"/>
      <point x="277" y="-61" type="qcurve"/>
      <point x="298" y="-77"/>
      <point x="315" y="-117"/>
      <point x="315" y="-142" type="qcurve" name="sh03"/>
      <point x="315" y="-176"/>
      <point x="281" y="-233" name="fh01"/>
      <point x="247" y="-244" type="qcurve"/>
      <point x="238.5" y="-247.0" name="inserted"/>
      <point x="220.0" y="-250.0"/>
      <point x="210" y="-250" type="qcurve" name="ab01"/>
      <point x="176" y="-250"/>
      <point x="119" y="-213" name="fh02"/>
      <point x="106" y="-175" type="qcurve" name="sh04"/>
      <point x="152" y="-151" type="line" name="sv02"/>
      <point x="157" y="-167" name="sh05"/>
      <point x="183" y="-188"/>
      <point x="203" y="-188" type="qcurve" name="sv03"/>
      <point x="227" y="-188"/>
      <point x="253" y="-156"/>
      <point x="253" y="-132" type="qcurve" name="sh06"/>
      <point x="253" y="-112"/>
      <point x="231" y="-89"/>
      <point x="218.5" y="-80.0" type="qcurve" smooth="yes" name="inserted"/>
      <point x="206" y="-71"/>
      <point x="184" y="-51"/>
      <point x="184" y="-34" type="qcurve"/>
      <point x="184" y="-2" type="line" name="ih01"/>
      <point x="152" y="6" name="fh03"/>
      <point x="97" y="42" name="fh04"/>
      <point x="77.5" y="67.0" type="qcurve" smooth="yes" name="inserted"/>
      <point x="58" y="92" name="fh05"/>
      <point x="36" y="154"/>
      <point x="36" y="188" type="qcurve" name="dh01"/>
      <point x="36" y="228"/>
      <point x="67" y="300" name="fh06"/>
      <point x="94.0" y="326.5" type="qcurve" smooth="yes" name="inserted"/>
      <point x="121" y="353" name="fh07"/>
      <point x="194" y="384"/>
      <point x="236" y="384" type="qcurve" name="at01"/>
      <point x="273" y="384"/>
      <point x="337" y="361"/>
      <point x="363" y="341" type="qcurve"/>
      <point x="363" y="225" type="line" name="dh02"/>
      <point x="288" y="225" type="line" name="sh07"/>
      <point x="288" y="292" type="line"/>
      <point x="275.5" y="297.5" name="inserted"/>
      <point x="249.5" y="303.0"/>
      <point x="236" y="303" type="qcurve" name="sv04"/>
      <point x="184" y="303"/>
      <point x="119" y="238"/>
      <point x="119" y="188" type="qcurve" name="sh08"/>
      <point x="119" y="139"/>
      <point x="184" y="72"/>
      <point x="236" y="72" type="qcurve" name="sv05"/>
      <point x="258.0" y="72.0" name="inserted"/>
      <point x="295.5" y="84.5"/>
    </contour>
  </outline>
</glyph>
<glyph name="eth" format="1">
  <advance width="471"/>
  <unicode hex="00F0"/>
  <outline>
    <contour>
      <point x="119" y="188" type="qcurve" name="sh01"/>
      <point x="119" y="163"/>
      <point x="138" y="121"/>
      <point x="153.5" y="106.0" type="qcurve" smooth="yes" name="inserted"/>
      <point x="169" y="91"/>
      <point x="213" y="74"/>
      <point x="239" y="75" type="qcurve" name="sv01"/>
      <point x="265" y="76"/>
      <point x="307" y="95"/>
      <point x="322.0" y="111.0" type="qcurve" smooth="yes" name="inserted"/>
      <point x="337" y="127"/>
      <point x="353" y="170"/>
      <point x="353" y="194" type="qcurve" name="sh02"/>
      <point x="352" y="219"/>
      <point x="333" y="261" name="fh01"/>
      <point x="317.5" y="276.0" type="qcurve" smooth="yes" name="inserted"/>
      <point x="302" y="291" name="fh02"/>
      <point x="258" y="307"/>
      <point x="233" y="306" type="qcurve" name="sv02"/>
      <point x="180" y="304"/>
      <point x="117" y="238"/>
    </contour>
    <contour>
      <point x="114" y="531" type="qcurve" name="sh03"/>
      <point x="128" y="546"/>
      <point x="156" y="576"/>
      <point x="170" y="591" type="qcurve" name="ih02"/>
      <point x="148.0" y="616.5" name="inserted"/>
      <point x="102.0" y="662.5"/>
      <point x="78" y="683" type="qcurve" name="ih01"/>
      <point x="93" y="697"/>
      <point x="124" y="724"/>
      <point x="139" y="738" type="qcurve" name="sh04"/>
      <point x="161.5" y="720.5" name="inserted"/>
      <point x="206.5" y="679.0"/>
      <point x="229" y="655" type="qcurve" name="ih04"/>
      <point x="240" y="668"/>
      <point x="263" y="692"/>
      <point x="274" y="705" type="qcurve" name="sv03"/>
      <point x="288" y="692"/>
      <point x="318" y="667"/>
      <point x="332" y="654" type="qcurve" name="sh05"/>
      <point x="318" y="639"/>
      <point x="292" y="610"/>
      <point x="278" y="595" type="qcurve" name="ih03"/>
      <point x="309" y="554"/>
      <point x="366" y="456"/>
      <point x="388.0" y="404.0" type="qcurve" smooth="yes" name="inserted"/>
      <point x="410" y="352"/>
      <point x="436" y="246"/>
      <point x="436" y="197" type="qcurve" name="dh02"/>
      <point x="437" y="156"/>
      <point x="408" y="84" name="fh03"/>
      <point x="382.0" y="56.5" type="qcurve" smooth="yes" name="inserted"/>
      <point x="356" y="29" name="fh04"/>
      <point x="284" y="-5"/>
      <point x="242" y="-6" type="qcurve" name="ab01"/>
      <point x="200" y="-7"/>
      <point x="126" y="22" name="fh05"/>
      <point x="98.0" y="48.0" type="qcurve" smooth="yes" name="inserted"/>
      <point x="70" y="74" name="fh06"/>
      <point x="36" y="144"/>
      <point x="35" y="185" type="qcurve" name="dh01"/>
      <point x="34" y="225"/>
      <point x="63" y="298" name="fh07"/>
      <point x="89.5" y="325.0" type="qcurve" smooth="yes" name="inserted"/>
      <point x="116" y="352" name="fh08"/>
      <point x="188" y="385"/>
      <point x="230" y="386" type="qcurve" name="at01"/>
      <point x="246.0" y="386.5" name="inserted"/>
      <point x="278.0" y="382.5"/>
      <point x="294" y="378" type="qcurve" name="ih05"/>
      <point x="281" y="418"/>
      <point x="242" y="493"/>
      <point x="218" y="528" type="qcurve" name="ih06"/>
      <point x="207" y="515"/>
      <point x="183" y="491"/>
      <point x="172" y="478" type="qcurve" name="sv04"/>
      <point x="158" y="492"/>
      <point x="128" y="517"/>
    </contour>
  </outline>
</glyph>
<glyph name="divide" format="1">
  <advance width="501"/>
  <unicode hex="00F7"/>
  <outline>
    <contour>
      <point x="428" y="206" type="line" name="sh02"/>
      <point x="68" y="206" type="line" name="sh03"/>
      <point x="68" y="287" type="line" name="sv01"/>
      <point x="428" y="287" type="line"/>
    </contour>
    <contour>
      <point x="199" y="373" type="qcurve" name="sh04"/>
      <point x="199" y="396"/>
      <point x="231" y="426"/>
      <point x="251" y="426" type="qcurve" name="sv02"/>
      <point x="270" y="426"/>
      <point x="302" y="396"/>
      <point x="302" y="373" type="qcurve" name="sh05"/>
      <point x="302" y="350"/>
      <point x="270" y="321"/>
      <point x="251" y="321" type="qcurve" name="sv03"/>
      <point x="231" y="321"/>
      <point x="199" y="350"/>
    </contour>
    <contour>
      <point x="199" y="123" type="qcurve" name="ah01"/>
      <point x="199" y="146"/>
      <point x="231" y="176"/>
      <point x="251" y="176" type="qcurve" name="sv05"/>
      <point x="270" y="176"/>
      <point x="302" y="146"/>
      <point x="302" y="123" type="qcurve" name="sh01"/>
      <point x="302" y="100"/>
      <point x="270" y="71"/>
      <point x="251" y="71" type="qcurve" name="sv04"/>
      <point x="231" y="71"/>
      <point x="199" y="100"/>
    </contour>
  </outline>
</glyph>
<glyph name="oslash" format="1">
  <advance width="471"/>
  <unicode hex="00F8"/>
  <outline>
    <contour>
      <point x="118" y="188" type="qcurve" name="sh01"/>
      <point x="118.0" y="170.5" name="inserted"/>
      <point x="126.5" y="139.0"/>
      <point x="135" y="125" type="qcurve" name="ih01"/>
      <point x="172" y="168"/>
      <point x="244" y="252"/>
      <point x="281" y="295" type="qcurve" name="ih02"/>
      <point x="270.0" y="299.0" name="inserted"/>
      <point x="247.0" y="303.0"/>
      <point x="235" y="303" type="qcurve" name="sv02"/>
      <point x="183" y="303"/>
      <point x="118" y="238"/>
    </contour>
    <contour>
      <point x="235" y="72" type="qcurve" name="sv01"/>
      <point x="287" y="72"/>
      <point x="352" y="139"/>
      <point x="352" y="188" type="qcurve" name="sh02"/>
      <point x="352" y="208"/>
      <point x="340" y="245"/>
      <point x="329" y="259" type="qcurve" name="ih03"/>
      <point x="179" y="85" type="line" name="ih04"/>
      <point x="192.0" y="78.5" name="inserted"/>
      <point x="220.0" y="72.0"/>
    </contour>
    <contour>
      <point x="35" y="188" type="qcurve" name="dh01"/>
      <point x="35" y="228"/>
      <point x="66" y="300" name="fh01"/>
      <point x="93.0" y="326.5" type="qcurve" smooth="yes" name="inserted"/>
      <point x="120" y="353" name="fh02"/>
      <point x="193" y="384"/>
      <point x="235" y="384" type="qcurve" name="at01"/>
      <point x="263.0" y="384.0" name="inserted"/>
      <point x="313.0" y="371.0"/>
      <point x="335" y="358" type="qcurve" name="ih05"/>
      <point x="344" y="369"/>
      <point x="363" y="390"/>
      <point x="372" y="401" type="qcurve" name="sv03"/>
      <point x="383" y="391"/>
      <point x="406" y="371"/>
      <point x="417" y="361" type="qcurve" name="sh03"/>
      <point x="409" y="351"/>
      <point x="391" y="331"/>
      <point x="383" y="321" type="qcurve" name="ih06"/>
      <point x="408" y="295" name="fh03"/>
      <point x="436" y="226"/>
      <point x="436" y="188" type="qcurve" name="dh02"/>
      <point x="436" y="147"/>
      <point x="405" y="76" name="fh04"/>
      <point x="378.0" y="49.0" type="qcurve" smooth="yes" name="inserted"/>
      <point x="351" y="22" name="fh05"/>
      <point x="277" y="-9"/>
      <point x="235" y="-9" type="qcurve" name="ab01"/>
      <point x="204" y="-9"/>
      <point x="149" y="8"/>
      <point x="126" y="23" type="qcurve" name="ih07"/>
      <point x="115" y="11"/>
      <point x="95" y="-14"/>
      <point x="84" y="-26" type="qcurve" name="sv04"/>
      <point x="73" y="-16"/>
      <point x="49" y="2"/>
      <point x="38" y="12" type="qcurve" name="sh04"/>
      <point x="49" y="25"/>
      <point x="70" y="49"/>
      <point x="81" y="62" type="qcurve" name="ih08"/>
      <point x="59" y="88" name="fh06"/>
      <point x="35" y="152"/>
    </contour>
  </outline>
</glyph>
<glyph name="dotlessi" format="1">
  <advance width="292"/>
  <unicode hex="0131"/>
  <outline>
    <contour>
      <point x="35" y="79" type="line" name="sh01"/>
      <point x="105" y="79" type="line" name="dh01"/>
      <point x="105" y="296" type="line"/>
      <point x="35" y="296" type="line" name="sh02"/>
      <point x="35" y="375" type="line" name="at01"/>
      <point x="188" y="375" type="line"/>
      <point x="188" y="79" type="line" name="dh02"/>
      <point x="257" y="79" type="line" name="sh03"/>
      <point x="257" y="0" type="line"/>
      <point x="35" y="0" type="line" name="ab01"/>
    </contour>
  </outline>
</glyph>
<glyph name="ring" format="1">
  <advance width="250"/>
  <unicode hex="02DA"/>
  <outline>
    <contour>
      <point x="93" y="539" type="qcurve" name="sh01"/>
      <point x="93" y="525"/>
      <point x="111" y="507"/>
      <point x="125" y="507" type="qcurve" name="sv01"/>
      <point x="139" y="507"/>
      <point x="158" y="525"/>
      <point x="158" y="539" type="qcurve" name="sh03"/>
      <point x="158" y="553"/>
      <point x="139" y="572"/>
      <point x="125" y="572" type="qcurve" name="sv03"/>
      <point x="111" y="572"/>
      <point x="93" y="553"/>
    </contour>
    <contour>
      <point x="38" y="540" type="qcurve" name="ah01"/>
      <point x="38" y="558"/>
      <point x="52" y="589"/>
      <point x="64.0" y="601.0" type="qcurve" smooth="yes" name="inserted"/>
      <point x="76" y="613" name="fh01"/>
      <point x="107" y="627"/>
      <point x="125" y="627" type="qcurve" name="sv02"/>
      <point x="143" y="627"/>
      <point x="174" y="613"/>
      <point x="186.0" y="601.0" type="qcurve" smooth="yes" name="inserted"/>
      <point x="198" y="589" name="fh02"/>
      <point x="212" y="558"/>
      <point x="212" y="540" type="qcurve" name="sh02"/>
      <point x="212" y="522"/>
      <point x="198" y="491"/>
      <point x="186.0" y="479.0" type="qcurve" smooth="yes" name="inserted"/>
      <point x="174" y="467" name="fv01"/>
      <point x="143" y="453"/>
      <point x="125" y="453" type="qcurve" name="av01"/>
      <point x="107" y="453"/>
      <point x="76" y="467" name="fh03"/>
      <point x="64.0" y="479.0" type="qcurve" smooth="yes" name="inserted"/>
      <point x="52" y="491"/>
      <point x="38" y="522"/>
    </contour>
  </outline>
</glyph>
<glyph name="quoteleft" format="1">
  <advance width="164"/>
  <unicode hex="2018"/>
  <outline>
    <contour>
      <point x="116" y="590" type="qcurve" name="sh01"/>
      <point x="105" y="584"/>
      <point x="86" y="572"/>
      <point x="75" y="566" type="qcurve" name="sv01"/>
      <point x="47" y="594"/>
      <point x="23" y="669"/>
      <point x="31" y="711" type="qcurve" name="ah01"/>
      <point x="44" y="709"/>
      <point x="70" y="706"/>
      <point x="83" y="704" type="qcurve" name="sh02"/>
      <point x="76" y="669"/>
      <point x="95" y="610"/>
    </contour>
  </outline>
</glyph>
<glyph name="quotedblbase" format="1">
  <advance width="341"/>
  <unicode hex="201E"/>
  <outline>
    <contour>
      <point x="60" y="-53" type="qcurve" name="sv01"/>
      <point x="49" y="-47"/>
      <point x="30" y="-35"/>
      <point x="19" y="-29" type="qcurve" name="sh02"/>
      <point x="40" y="-9"/>
      <point x="59" y="50"/>
      <point x="52" y="85" type="qcurve" name="sh03"/>
      <point x="65" y="87"/>
      <point x="91" y="90"/>
      <point x="104" y="92" type="qcurve" name="sh01"/>
      <point x="112" y="50"/>
      <point x="88" y="-25"/>
    </contour>
    <contour>
      <point x="164" y="-53" type="qcurve" name="sv02"/>
      <point x="153" y="-47"/>
      <point x="134" y="-35"/>
      <point x="123" y="-29" type="qcurve" name="sh04"/>
      <point x="144" y="-9"/>
      <point x="163" y="50"/>
      <point x="156" y="85" type="qcurve" name="sh05"/>
      <point x="169" y="87"/>
      <point x="195" y="90"/>
      <point x="208" y="92" type="qcurve" name="ah01"/>
      <point x="216" y="50"/>
      <point x="192" y="-25"/>
    </contour>
  </outline>
</glyph>
<glyph name="bullet" format="1">
  <advance width="479"/>
  <unicode hex="2022"/>
  <outline>
    <contour>
      <point x="113" y="300" type="qcurve" name="dh01"/>
      <point x="113" y="327"/>
      <point x="133" y="373"/>
      <point x="150.0" y="390.5" type="qcurve" smooth="yes" name="inserted"/>
      <point x="167" y="408"/>
      <point x="213" y="428"/>
      <point x="239" y="428" type="qcurve" name="dv01"/>
      <point x="266" y="428"/>
      <point x="312" y="408"/>
      <point x="329.5" y="390.5" type="qcurve" smooth="yes" name="inserted"/>
      <point x="347" y="373"/>
      <point x="367" y="327"/>
      <point x="367" y="300" type="qcurve" name="dh02"/>
      <point x="367" y="273"/>
      <point x="347" y="227"/>
      <point x="329.5" y="210.0" type="qcurve" smooth="yes" name="inserted"/>
      <point x="312" y="193"/>
      <point x="266" y="174"/>
      <point x="239" y="174" type="qcurve" name="dv02"/>
      <point x="213" y="174"/>
      <point x="167" y="193"/>
      <point x="150.0" y="210.0" type="qcurve" smooth="yes" name="inserted"/>
      <point x="133" y="227"/>
      <point x="113" y="273"/>
    </contour>
  </outline>
</glyph>
<glyph name="guilsinglleft" format="1">
  <advance width="392"/>
  <unicode hex="2039"/>
  <outline>
    <contour>
      <point x="288" y="77" type="line" name="sv01"/>
      <point x="117" y="239" type="line" name="ah01"/>
      <point x="160" y="280"/>
      <point x="245" y="359"/>
      <point x="288" y="400" type="qcurve" name="sv02"/>
      <point x="288" y="305" type="line" name="sh01"/>
      <point x="271" y="288"/>
      <point x="240" y="256"/>
      <point x="223" y="239" type="qcurve" name="sh02"/>
      <point x="240" y="222"/>
      <point x="271" y="189"/>
      <point x="288" y="172" type="qcurve" name="sh03"/>
    </contour>
  </outline>
</glyph>
